<svg fill="none" height="36" viewBox="0 0 36 36" width="36" xmlns="http://www.w3.org/2000/svg" xmlns:xlink="http://www.w3.org/1999/xlink"><clipPath id="a"><path d="m0 0h36v36h-36z"/></clipPath><g clip-path="url(#a)"><path d="m18 3.2445c4.806 0 5.376.018 7.275.105 4.878.222 7.1565 2.5365 7.3785 7.3785.087 1.8975.1035 2.4675.1035 7.2735 0 4.8075-.018 5.376-.1035 7.2735-.2235 4.8375-2.496 7.1565-7.3785 7.3785-1.899.087-2.466.105-7.275.105-4.806 0-5.376-.018-7.2735-.105-4.89-.2235-7.1565-2.5485-7.3785-7.38-.087-1.8975-.105-2.466-.105-7.2735 0-4.806.0195-5.3745.105-7.2735.2235-4.8405 2.496-7.1565 7.3785-7.3785 1.899-.0855 2.4675-.1035 7.2735-.1035zm0-3.2445c-4.8885 0-5.5005.021-7.4205.108-6.537.3-10.17 3.927-10.47 10.47-.0885 1.9215-.1095 2.5335-.1095 7.422s.021 5.502.108 7.422c.3 6.537 3.927 10.17 10.47 10.47 1.9215.087 2.5335.108 7.422.108s5.502-.021 7.422-.108c6.531-.3 10.173-3.927 10.4685-10.47.0885-1.92.1095-2.5335.1095-7.422s-.021-5.5005-.108-7.4205c-.294-6.531-3.9255-10.17-10.4685-10.47-1.9215-.0885-2.535-.1095-7.4235-.1095zm0 8.757c-5.1045 0-9.243 4.1385-9.243 9.243s4.1385 9.2445 9.243 9.2445 9.243-4.1385 9.243-9.2445c0-5.1045-4.1385-9.243-9.243-9.243zm0 15.243c-3.3135 0-6-2.685-6-6 0-3.3135 2.6865-6 6-6s6 2.6865 6 6c0 3.315-2.6865 6-6 6zm9.609-17.7675c-1.194 0-2.1615.9675-2.1615 2.16s.9675 2.16 2.1615 2.16c1.1925 0 2.1585-.9675 2.1585-2.16s-.966-2.16-2.1585-2.16z" fill="#fff"/></g></svg>