<svg height="22" viewBox="0 0 22 22" width="22" xmlns="http://www.w3.org/2000/svg"><path d="m11 0c-2.98833333 0-3.36141667.01375-4.53475.066-1.1715.055-1.969.23925-2.67025.5115-.72325.2805-1.33741667.65725-1.94883333 1.26866667-.61141667.61141666-.98908334 1.22466666-1.26866667 1.94883333-.27225.70125-.45741667 1.49875-.5115 2.67025-.055 1.17333333-.066 1.54641667-.066 4.53475 0 2.9883333.01375 3.3614167.066 4.53475.055 1.1705833.23925 1.969.5115 2.67025.2805.7223333.65725 1.3374167 1.26866667 1.9488333.61141666.6105 1.22466666.9890834 1.94883333 1.2686667.70216667.2713333 1.49966667.4574167 2.67025.5115 1.17333333.055 1.54641667.066 4.53475.066 2.9883333 0 3.3614167-.01375 4.53475-.066 1.1705833-.055 1.969-.2401667 2.67025-.5115.7223333-.2805 1.3374167-.6581667 1.9488333-1.2686667.6105-.6114166.9890834-1.22375 1.2686667-1.9488333.2713333-.70125.4574167-1.4996667.5115-2.67025.055-1.1733333.066-1.5464167.066-4.53475 0-2.98833333-.01375-3.36141667-.066-4.53475-.055-1.17058333-.2401667-1.96991667-.5115-2.67025-.2805-.72325-.6581667-1.33741667-1.2686667-1.94883333-.6114166-.61141667-1.22375-.98908334-1.9488333-1.26866667-.70125-.27225-1.4996667-.45741667-2.67025-.5115-1.1733333-.055-1.5464167-.066-4.53475-.066zm0 1.98c2.9360833 0 3.28625.01466667 4.4458333.06508333 1.0725.05041667 1.6545834.22825 2.0414167.38041667.5151667.19891667.88.43725 1.2668333.82133333.3840834.385.6224167.75075.8213334 1.26591667.1503333.38683333.33.96891667.3785833 2.04141667.05225 1.1605.0641667 1.50883333.0641667 4.44583333s-.01375 3.28625-.0678334 4.4458333c-.0559166 1.0725-.2346666 1.6545834-.3859166 2.0414167-.2053334.5151667-.4390834.88-.8240834 1.2668333-.3840833.3840834-.7553333.6224167-1.265.8213334-.385.1503333-.97625.33-2.04875.3785833-1.1678333.05225-1.5115833.0641667-4.4540833.0641667-2.94341667 0-3.28716667-.01375-4.45408333-.0678334-1.07341667-.0559166-1.66466667-.2346666-2.04966667-.3859166-.52158333-.2053334-.88-.4390834-1.26408333-.8240834-.38591667-.3840833-.6325-.7553333-.825-1.265-.15125-.385-.32908334-.97625-.385-2.04875-.04125-1.155-.05591667-1.5115833-.05591667-4.4403333 0-2.92966667.01466667-3.28716667.05591667-4.45591667.05591666-1.0725.23375-1.66283333.385-2.04783333.1925-.5225.43908333-.88.825-1.26591667.38408333-.38408333.7425-.63158333 1.26408333-.82316666.385-.15216667.96341667-.33091667 2.03591667-.38591667 1.16875-.04125 1.5125-.055 4.45408333-.055zm0 3.3715c-3.12125 0-5.6485 2.53-5.6485 5.6485 0 3.12125 2.53 5.6485 5.6485 5.6485 3.12125 0 5.6485-2.53 5.6485-5.6485 0-3.12125-2.53-5.6485-5.6485-5.6485zm0 9.3151667c-2.02583333 0-3.66666667-1.6408334-3.66666667-3.6666667 0-2.02583333 1.64083334-3.66666667 3.66666667-3.66666667 2.0258333 0 3.6666667 1.64083334 3.6666667 3.66666667 0 2.0258333-1.6408334 3.6666667-3.6666667 3.6666667zm7.1921667-9.5379167c0 .72875-.5921667 1.32-1.32 1.32-.72875 0-1.32-.59216667-1.32-1.32s.5921666-1.31908333 1.32-1.31908333c.7269166-.00091667 1.32.59125 1.32 1.31908333z"/></svg>