<svg fill="none" height="30" viewBox="0 0 36 30" width="36" xmlns="http://www.w3.org/2000/svg"><path d="m36 3.83551c-1.3245.588-2.748.984-4.242 1.1625 1.5255-.9135 2.697-2.361 3.2475-4.086001-1.4265.846001-3.0075 1.461001-4.6905 1.792501-1.3455-1.4355-3.267-2.332501-5.391-2.332501-4.7685 0-8.2725 4.449001-7.1955 9.067501-6.1365-.3075-11.5785-3.2475-15.222-7.716-1.935 3.3195-1.0035 7.662 2.2845 9.86099-1.209-.039-2.349-.3705-3.3435-.924-.081 3.4215 2.3715 6.6225 5.9235 7.335-1.0395.282-2.178.348-3.336.126.939 2.934 3.666 5.0685 6.9 5.1285-3.105 2.4345-7.017 3.522-10.935 3.06 3.2685 2.0955 7.152 3.318 11.322 3.318 13.713 0 21.4605-11.5815 20.9925-21.96899 1.443-1.0425 2.6955-2.343 3.6855-3.8235z" fill="#fff"/></svg>