<svg width="67" height="99" viewBox="0 0 67 99" fill="none" xmlns="http://www.w3.org/2000/svg">
<path d="M66.8401 26.736C66.8401 31.824 65.5921 36.096 63.0961 39.552C60.6001 42.912 56.6641 45.936 51.2881 48.624C46.7761 50.928 43.8001 52.896 42.3601 54.528C41.0161 56.16 40.1521 57.696 39.7681 59.136C39.3841 60.48 39.1921 62.064 39.1921 63.888V68.064H22.2001V62.304C22.2001 53.664 24.7921 47.52 29.9761 43.872C31.8001 42.528 34.4881 40.944 38.0401 39.12C41.5921 37.296 44.1361 35.472 45.6721 33.648C47.3041 31.728 48.1201 29.328 48.1201 26.448C48.1201 23.472 46.9201 21.024 44.5201 19.104C42.1201 17.088 38.5681 16.08 33.8641 16.08C29.1601 16.08 25.4641 17.232 22.7761 19.536C20.0881 21.744 18.5521 24.672 18.1681 28.32H0.456055C0.936055 19.968 4.00805 13.296 9.67206 8.304C15.3361 3.216 23.2561 0.671997 33.4321 0.671997C43.7041 0.671997 51.8161 3.168 57.7681 8.16C63.8161 13.152 66.8401 19.344 66.8401 26.736ZM19.3201 86.64C19.3201 83.376 20.3761 80.688 22.4881 78.576C24.6961 76.464 27.5281 75.408 30.9841 75.408C34.5361 75.408 37.4641 76.464 39.7681 78.576C42.0721 80.688 43.2241 83.376 43.2241 86.64C43.2241 89.904 42.0721 92.64 39.7681 94.848C37.4641 96.96 34.5361 98.016 30.9841 98.016C27.5281 98.016 24.6961 96.96 22.4881 94.848C20.3761 92.64 19.3201 89.904 19.3201 86.64Z" fill="white"/>
</svg>
