<svg height="80" viewBox="0 0 300 80" width="300" xmlns="http://www.w3.org/2000/svg"><g fill="none" fill-rule="evenodd"><path d="m4.24877412.25438597c.46609989 0 .86529983.06024647 1.19761179.18074122.33231196.12049476.610673.29292432.83509146.51729386.4660999.44042911.7250404 1.03458398.77682927 1.78248246l-1.54071138.29915789c-.06905184-.42380913-.21794262-.76451333-.44667683-1.0221228-.22873421-.25760948-.53730497-.38641228-.92572154-.38641228-.51788877 0-.9624033.23267603-1.33355691.69803508-.3797851.49859899-.6214629 1.20909188-.72504065 2.1315-.07768332.90578816.00863018 1.61004866.25894308 2.11280264.25031291.50275397.6408815.75412719 1.17171748.75412719.53083599 0 .94082512-.13919013 1.22997968-.41757456.28915456-.27838444.45530805-.62947595.49846545-1.05328509h1.52776422c-.09494627.91409814-.4358846 1.61835864-1.0228252 2.11280263s-1.35513075.74166228-2.3045935.74166228c-1.00988309 0-1.77591541-.37394363-2.29811991-1.1218421-.52220451-.74789848-.71425205-1.79078571-.57614838-3.12869299.13810367-1.33790727.5480928-2.3807945 1.22997968-3.12869298.65599244-.71465854 1.47165501-1.07198245 2.44701219-1.07198245zm4.44087399.16204386h4.90697159l-.1294716 1.30881578h-3.48278455l-.20715447 2.08164035h3.26268292l-.1294715 1.32128071h-3.26268296l-.20715448 2.08164035h3.48278454l-.1165244 1.3212807h-4.90697152zm8.38975609 0 2.7447968 5.68399999.5567276-5.68399999h1.424187l-.7897764 8.11465789h-1.4371342l-2.848374-5.8834386-.5696748 5.8834386h-1.424187l.7897765-8.11465789zm5.865061 0h6.0981097l-.1294715 1.30881578h-2.343435l-.673252 6.80584211h-1.4112398l.673252-6.80584211h-2.343435zm13.1672561-.16204386c.4660999 0 .8652998.06024647 1.1976118.18074122.3323119.12049476.610673.29292432.8350914.51729386.4660999.44042911.7250404 1.03458398.7768293 1.78248246l-1.5407114.29915789c-.0690518-.42380913-.2179426-.76451333-.4466768-1.0221228-.2287342-.25760948-.537305-.38641228-.9257216-.38641228-.5178887 0-.9624033.23267603-1.3335569.69803508-.3797851.49859899-.6214629 1.20909188-.7250406 2.1315-.0776833.90578816.0086302 1.61004866.2589431 2.11280264.2503129.50275397.6408815.75412719 1.1717174.75412719.530836 0 .9408252-.13919013 1.2299797-.41757456.2891546-.27838444.4553081-.62947595.4984655-1.05328509h1.5277642c-.0949463.91409814-.4358846 1.61835864-1.0228252 2.11280263s-1.3551308.74166228-2.3045935.74166228c-1.0098831 0-1.7759154-.37394363-2.2981199-1.1218421-.5222045-.74789848-.7142521-1.79078571-.5761484-3.12869299.1381037-1.33790727.5480928-2.3807945 1.2299797-3.12869298.6559924-.71465854 1.471655-1.07198245 2.4470122-1.07198245zm7.5999797 0c1.0530404 0 1.8514403.35316898 2.3952235 1.05951754.5783092.73127851.7984086 1.7824756.6603049 3.15362281-.1294722 1.37945719-.556724 2.44311906-1.2817683 3.19101754-.6732554.69803858-1.5407061 1.04705263-2.602378 1.04705263-1.0444091 0-1.8428089-.35732391-2.3952236-1.07198245-.5610462-.73127852-.7725143-1.78663053-.6344106-3.16608772.1294722-1.37945719.5524084-2.43896414 1.2688212-3.17855264.6646239-.68972859 1.5277589-1.03458771 2.5894309-1.03458771zm1.5795528 4.22560526c.0949463-.91409814-.0151034-1.62043611-.3301524-2.11903509s-.7746684-.74789474-1.378872-.74789474-1.1112954.25137322-1.5212906.7541272c-.4099953.50275397-.6603045 1.2111694-.750935 2.12526754s.0194192 1.61628117.3301524 2.10657018c.3107333.490289.7703527.73542982 1.378872.73542982s1.1156111-.24721829 1.5212906-.74166228c.4056796-.49444399.6559887-1.19870449.750935-2.11280263zm4.026565 2.72981579h3.09437l-.1165244 1.3212807h-4.5185569l.7897764-8.11465789h1.424187zm8.9076423-4.52476316c-.0604203-.70634856-.4876722-1.05951754-1.2817683-1.05951754-.3884166 0-.6991452.08309858-.9321951.24929824s-.3625202.36771373-.3884146.60454825c-.0258945.23683451.0258936.4196514.1553658.54845614.1294722.12880473.3366246.25137515.6214634.36771491l1.5925.69803509c.5437832.24098951.9472989.53806694 1.210559.89124123.2632601.35317428.3689941.79567424.3172053 1.32751315-.0690519.74789848-.3840961 1.3337435-.9451423 1.75755263-.5610462.42380914-1.320605.63571053-2.2786992.63571053-.845885 0-1.5104989-.22021125-1.9938618-.66064035-.5437832-.49859898-.7811453-1.1841623-.7120935-2.05671053h1.4112399c-.0431574.45704907.0755236.79152087.3560467 1.00342544s.6322506.31785527 1.0551931.31785527.77467-.08309859 1.0551931-.24929825.4358874-.39056584.4660975-.67310526c.0302102-.28253943-.01942-.49651828-.1488922-.64194299-.1294722-.1454247-.3495717-.28461483-.6603049-.41757456l-1.4630285-.64817544c-.5696776-.2409895-.9926138-.52560216-1.2688211-.85384649-.2762074-.32824433-.3884149-.77905415-.336626-1.35244298.0690518-.66479864.3711491-1.19662958.9063008-1.59550877.5437832-.41549915 1.2472382-.62324561 2.1103862-.62324561.8631479 0 1.5061835.21397885 1.929126.64194298s.6300949 1.02419647.6214634 1.78871491zm-53.97668698 7.74478074c.46609989 0 .86529983.0602464 1.19761179.1807412.33231196.1204947.610673.2929243.83509146.5172938.4660999.4404292.7250404 1.034584.77682927 1.7824825l-1.54071138.2991579c-.06905184-.4238091-.21794262-.7645133-.44667683-1.0221228s-.53730497-.3864123-.92572154-.3864123c-.51788877 0-.9624033.232676-1.33355691.6980351-.3797851.498599-.6214629 1.2090919-.72504065 2.1315-.07768332.9057882.00863018 1.6100487.25894308 2.1128026.25031291.502754.6408815.7541272 1.17171748.7541272.53083599 0 .94082512-.1391901 1.22997968-.4175745.28915456-.2783845.45530805-.629476.49846545-1.0532851h1.52776422c-.09494627.9140981-.4358846 1.6183586-1.0228252 2.1128026s-1.35513075.7416623-2.3045935.7416623c-1.00988309 0-1.77591541-.3739436-2.29811991-1.1218421-.52220451-.7478985-.71425205-1.7907857-.57614838-3.128693s.5480928-2.3807945 1.22997968-3.128693c.65599244-.7146585 1.47165501-1.0719824 2.44701219-1.0719824zm5.87800818.1620438-.33662606 3.3655263h3.27563006l.336626-3.3655263h1.4112399l-.7897765 8.1146579h-1.4241869l.3236788-3.4153859h-3.26268291l-.32367886 3.4153859h-1.42418699l.78977642-8.1146579zm8.5969105 0h1.7867073l1.6960773 8.1146579h-1.5148171l-.3495732-1.7201579h-2.7965853l-.6991464 1.7201579h-1.4889227zm-.6991463 5.2477281h2.0844918l-.6991463-3.4527807zm7.043252 1.5456491h3.0943699l-.1165244 1.3212807h-4.5185569l.7897765-8.1146579h1.4241869zm5.7873781 0h3.0943699l-.1165244 1.3212807h-4.5185569l.7897764-8.1146579h1.424187zm5.0234959-6.7933772h4.9069715l-.1294715 1.3088158h-3.4827846l-.2071544 2.0816404h3.2626829l-.1294715 1.3212807h-3.262683l-.2071544 2.0816403h3.4827845l-.1165244 1.3212807h-4.9069715zm8.3897561 0 2.7447967 5.684.5567277-5.684h1.424187l-.7897764 8.1146579h-1.4371342l-2.848374-5.8834386-.5696748 5.8834386h-1.424187l.7897765-8.1146579zm11.0198619 6.8198606c-.415191.9795422-1.0847318 1.4693061-2.0086424 1.4693061-.9580942 0-1.704706-.3822535-2.2398577-1.1467719-.5610462-.8060684-.7811456-1.8198711-.6603049-3.0414386.1381037-1.2963574.5826182-2.3350897 1.3335569-3.1162281.7250443-.7645185 1.618389-1.1467719 2.680061-1.1467719.7250443 0 1.3119761.1661971 1.760813.4985965.4488369.3323993.7681969.8642302.9580894 1.5955087l-1.4889227.3490176c-.3193648-.7146586-.8027204-1.0719825-1.4500813-1.0719825-.5696777 0-1.0659803.2576056-1.4889228.7728246-.4488369.5650788-.7077774 1.2714168-.7768293 2.1190351-.0863148.8393083.0194193 1.5144842.3172053 2.0255482.2977861.511064.709933.7665921 1.2364533.7665921.5265202 0 .9624034-.1578873 1.3076626-.4736667.3452591-.3157793.5610429-.7603567.6473577-1.3337456 0-.0244136.0041388-.0448426.0124164-.0612868.0003538-.0294462.0005307-.0588769.0005307-.0882921l-1.68313-.0373948.09063-.9722631h3.0425813l-.4013617 4.1882105h-1.1522968c-.0086315-.2160595-.0129471-.4362708-.0129471-.6606403 0-.1742734-.0026037-.3460381-.0078111-.5152972-.0059731.0139505-.0120008.0278273-.0180833.0416305 0-.0533364.0006112-.1068332.0018335-.1604903zm3.7528413-6.8198606h4.9069716l-.1294716 1.3088158h-3.4827845l-.2071545 2.0816404h3.2626829l-.1294715 1.3212807h-3.2626829l-.2071545 2.0816403h3.4827846l-.1165244 1.3212807h-4.9069716z" fill="#141414" transform="translate(6.027896 59.475457)"/><g><path d="m10.8697674.09032258-10.8697674 27.77419352h5.61162791l13.29116279-22.64161287z" fill="#141414" transform="translate(0 32.350746)"/><path d="m9.71428571.08888889-9.59120879 16.16222221 9.01978022 5.7 10.73846156-12.22444443z" fill="#0a3a49" transform="translate(18.818408 21.156717)"/><path d="m26.8546256 0-26.75330401 30.7348315 30.45594711 29.130337h19.3480176z" fill="#b1350e" transform="translate(38.743781 .335821)"/></g></g></svg>