<svg width="153" height="147" viewBox="0 0 153 147" fill="none" xmlns="http://www.w3.org/2000/svg">
<path fill-rule="evenodd" clip-rule="evenodd" d="M9.7756 89L0 113H5.04675L17 93.4351L9.7756 89Z" fill="white"/>
<path fill-rule="evenodd" clip-rule="evenodd" d="M25.2523 80L17 93.307L24.7606 98L34 87.9352L25.2523 80Z" fill="white"/>
<path fill-rule="evenodd" clip-rule="evenodd" d="M57.0984 62L34 88.1834L60.2952 113H77L57.0984 62Z" fill="white"/>
<path d="M4.28365 142.575H16.2065L15.8495 146.504H0L0.356971 142.504C0.547355 140.593 1.08281 139.083 1.96334 137.973C2.79627 136.935 4.06947 136.05 5.78293 135.319L10.2808 133.513C12.1608 132.735 13.1722 131.507 13.315 129.832C13.4102 128.982 13.196 128.263 12.6725 127.673C12.1727 127.059 11.3993 126.752 10.3522 126.752C9.30504 126.752 8.41261 127.035 7.67487 127.602C6.93713 128.168 6.44927 129.006 6.21129 130.115H1.85625C2.14182 127.755 3.10565 125.973 4.74771 124.77C6.34218 123.59 8.29362 123 10.602 123C12.7915 123 14.5287 123.637 15.8138 124.912C17.1465 126.233 17.7177 127.861 17.5273 129.796C17.3607 131.708 16.7776 133.242 15.7781 134.398C14.8024 135.555 13.3626 136.534 11.4588 137.336L6.88954 139.177C6.03281 139.507 5.40216 139.885 4.99759 140.31C4.59302 140.711 4.36694 141.254 4.31935 141.938L4.28365 142.575Z" fill="white"/>
<path d="M30.5888 123C33.2542 123 35.2651 123.979 36.6216 125.938C38.0495 128.038 38.573 131.059 38.1923 135C37.8353 138.917 36.7406 141.926 34.9081 144.027C33.1471 146.009 30.9457 147 28.3042 147C25.6626 147 23.6516 146.009 22.2714 144.027C20.8673 141.973 20.3556 138.965 20.7364 135C21.1171 131.012 22.2 127.991 23.9848 125.938C25.7221 123.979 27.9234 123 30.5888 123ZM34.1228 135C34.3846 132.357 34.1704 130.351 33.4802 128.982C32.7901 127.59 31.6954 126.894 30.1961 126.894C28.7206 126.894 27.5069 127.59 26.555 128.982C25.6031 130.351 24.9962 132.357 24.7345 135C24.4965 137.619 24.7107 139.614 25.377 140.982C26.0671 142.351 27.1619 143.035 28.6611 143.035C30.1604 143.035 31.3741 142.351 32.3022 140.982C33.2542 139.614 33.861 137.619 34.1228 135Z" fill="white"/>
<path d="M44.2337 142.575H56.1565L55.7996 146.504H39.9501L40.307 142.504C40.4974 140.593 41.0329 139.083 41.9134 137.973C42.7463 136.935 44.0195 136.05 45.733 135.319L50.2308 133.513C52.1109 132.735 53.1223 131.507 53.2651 129.832C53.3603 128.982 53.1461 128.263 52.6225 127.673C52.1228 127.059 51.3493 126.752 50.3022 126.752C49.2551 126.752 48.3627 127.035 47.6249 127.602C46.8872 128.168 46.3993 129.006 46.1613 130.115H41.8063C42.0919 127.755 43.0557 125.973 44.6978 124.77C46.2922 123.59 48.2437 123 50.5521 123C52.7415 123 54.4788 123.637 55.7639 124.912C57.0966 126.233 57.6677 127.861 57.4773 129.796C57.3107 131.708 56.7277 133.242 55.7282 134.398C54.7524 135.555 53.3127 136.534 51.4088 137.336L46.8396 139.177C45.9829 139.507 45.3522 139.885 44.9476 140.31C44.5431 140.711 44.317 141.254 44.2694 141.938L44.2337 142.575Z" fill="white"/>
<path d="M63.7207 142.575H75.6435L75.2865 146.504H59.437L59.794 142.504C59.9844 140.593 60.5198 139.083 61.4004 137.973C62.2333 136.935 63.5065 136.05 65.22 135.319L69.7178 133.513C71.5978 132.735 72.6093 131.507 72.752 129.832C72.8472 128.982 72.6331 128.263 72.1095 127.673C71.6097 127.059 70.8363 126.752 69.7892 126.752C68.7421 126.752 67.8496 127.035 67.1119 127.602C66.3742 128.168 65.8863 129.006 65.6483 130.115H61.2933C61.5789 127.755 62.5427 125.973 64.1847 124.77C65.7792 123.59 67.7307 123 70.0391 123C72.2285 123 73.9657 123.637 75.2508 124.912C76.5835 126.233 77.1547 127.861 76.9643 129.796C76.7977 131.708 76.2147 133.242 75.2151 134.398C74.2394 135.555 72.7996 136.534 70.8958 137.336L66.3266 139.177C65.4698 139.507 64.8392 139.885 64.4346 140.31C64.0301 140.711 63.804 141.254 63.7564 141.938L63.7207 142.575Z" fill="white"/>
<path d="M28.6017 15.087C28.389 10.7616 26.3951 8.59882 22.6199 8.59882C18.5258 8.59882 15.2026 10.8137 12.6504 15.2434C10.045 19.7773 8.74235 25.7183 8.74235 33.0664C10.6033 24.7802 15.3355 20.6372 22.939 20.6372C27.3521 20.6372 30.8082 22.1485 33.3073 25.1711C35.7531 28.1937 36.7634 32.0762 36.338 36.8186C35.8063 41.7173 33.839 45.6259 30.436 48.5442C26.9799 51.5148 22.7529 53 17.7548 53C11.906 53 7.30674 50.6027 3.95697 45.8083C0.713553 41.0138 -0.535962 34.8643 0.20843 27.3599C1.05916 18.6568 3.58478 11.882 7.78528 7.0354C11.8794 2.34513 17.0104 0 23.1782 0C27.8041 0 31.4995 1.38102 34.2643 4.14307C36.9229 6.853 38.1458 10.501 37.9331 15.087H28.6017ZM20.0677 28.4543C17.8346 28.4543 15.8672 29.1839 14.1658 30.6431C12.5175 32.1023 11.587 34.0305 11.3743 36.4277C11.1616 38.6686 11.7465 40.5447 13.1289 42.056C14.405 43.5152 16.1863 44.2448 18.4726 44.2448C20.759 44.2448 22.7263 43.5413 24.3746 42.1342C26.0229 40.675 26.9799 38.7468 27.2458 36.3496C27.5117 33.9002 26.9268 31.972 25.4912 30.5649C24.1087 29.1578 22.3009 28.4543 20.0677 28.4543Z" fill="white"/>
<path d="M54.3492 20.8717C57.1141 20.4027 59.6131 20.1681 61.8463 20.1681C66.6848 20.1681 70.4068 21.4449 73.0122 23.9985C75.6175 26.5521 76.681 30.2001 76.2024 34.9425C75.7771 40.0497 73.7566 44.323 70.141 47.7625C66.4722 51.2542 61.9792 53 56.6621 53C51.4514 53 47.437 51.5669 44.619 48.7006C41.6946 45.7301 40.445 41.6913 40.8704 36.5841H49.8829C49.617 39.1898 50.2019 41.118 51.6375 42.3687C53.1263 43.6195 55.067 44.2448 57.4597 44.2448C60.0119 44.2448 62.2451 43.3589 64.1592 41.587C65.9139 39.9194 66.9507 37.7045 67.2697 34.9425C67.6951 29.8874 64.7707 27.3599 58.4965 27.3599H44.1404L48.7663 1.01623H77L76.1227 9.77139H56.4229L54.3492 20.8717Z" fill="white"/>
<path d="M113.739 107.757C118.286 107.757 121.959 109.011 124.757 111.52C127.555 113.969 129.362 117.612 130.178 122.451L153 106.323L153 115.462L130.528 130.066L130.528 139.922L153 139.922L153 147L98 147L98 127.378C98 121.047 99.4865 116.209 102.459 112.864C105.432 109.459 109.192 107.757 113.739 107.757ZM125.719 127.916C125.719 123.675 124.728 120.479 122.746 118.329C120.705 116.119 118.053 115.014 114.789 115.014C111.466 115.014 108.843 116.089 106.919 118.239C104.937 120.33 103.946 123.376 103.946 127.378L103.946 139.922L125.719 139.922L125.719 127.916Z" fill="white"/>
<path d="M98 101.012L98 93.9336L153 93.9336L153 101.012L98 101.012Z" fill="white"/>
<path d="M98 68.3741C98 59.8923 100.507 53.1128 105.52 48.0357C110.475 42.8988 117.149 40.3304 125.544 40.3304C133.88 40.3304 140.554 42.8988 145.568 48.0357C150.523 53.1128 153 59.8923 153 68.3741L153 84.9495L98 84.9495L98 68.3741ZM146.967 77.8713L146.967 68.3741C146.967 62.1023 144.955 57.1148 140.933 53.4115C136.853 49.7081 131.694 47.8565 125.456 47.8565C119.219 47.8565 114.118 49.738 110.154 53.5011C106.132 57.2044 104.121 62.1621 104.121 68.3741L104.121 77.8713L146.967 77.8713Z" fill="white"/>
<path d="M98 34.6739L98 0L103.946 -2.59905e-07L103.946 27.5958L122.396 27.5958L122.396 1.61273L128.254 1.61273L128.254 27.5958L146.967 27.5958L146.967 -2.1404e-06L153 -2.40413e-06L153 34.6739L98 34.6739Z" fill="white"/>
</svg>
