<svg width="153" height="147" viewBox="0 0 153 147" fill="none" xmlns="http://www.w3.org/2000/svg">
<path fill-rule="evenodd" clip-rule="evenodd" d="M9.7756 89.0002L0 113H5.04675L17 93.4354L9.7756 89.0002Z" fill="white"/>
<path fill-rule="evenodd" clip-rule="evenodd" d="M25.2523 80.0002L17 93.3072L24.7606 98.0002L34 87.9354L25.2523 80.0002Z" fill="white"/>
<path fill-rule="evenodd" clip-rule="evenodd" d="M57.0984 62.0002L34 88.1837L60.2952 113H77L57.0984 62.0002Z" fill="white"/>
<path d="M28.6017 15.0873C28.389 10.7618 26.3951 8.59907 22.6199 8.59907C18.5258 8.59907 15.2026 10.8139 12.6504 15.2436C10.045 19.7775 8.74235 25.7185 8.74235 33.0666C10.6033 24.7805 15.3355 20.6374 22.939 20.6374C27.3521 20.6374 30.8082 22.1487 33.3073 25.1713C35.7531 28.194 36.7634 32.0764 36.338 36.8188C35.8063 41.7175 33.839 45.6261 30.436 48.5445C26.9799 51.515 22.7529 53.0002 17.7548 53.0002C11.906 53.0002 7.30674 50.603 3.95697 45.8085C0.713553 41.014 -0.535962 34.8646 0.20843 27.3601C1.05916 18.6571 3.58478 11.8822 7.78528 7.03564C11.8794 2.34538 17.0104 0.000244141 23.1782 0.000244141C27.8041 0.000244141 31.4995 1.38127 34.2643 4.14331C36.9229 6.85324 38.1458 10.5012 37.9331 15.0873H28.6017ZM20.0677 28.4545C17.8346 28.4545 15.8672 29.1841 14.1658 30.6433C12.5175 32.1025 11.587 34.0307 11.3743 36.428C11.1616 38.6689 11.7465 40.545 13.1289 42.0563C14.405 43.5155 16.1863 44.2451 18.4726 44.2451C20.759 44.2451 22.7263 43.5415 24.3746 42.1345C26.0229 40.6753 26.9799 38.747 27.2458 36.3498C27.5117 33.9004 26.9268 31.9722 25.4912 30.5651C24.1087 29.1581 22.3009 28.4545 20.0677 28.4545Z" fill="white"/>
<path d="M54.3492 20.8719C57.1141 20.4029 59.6131 20.1684 61.8463 20.1684C66.6848 20.1684 70.4068 21.4452 73.0122 23.9988C75.6175 26.5524 76.681 30.2003 76.2024 34.9427C75.7771 40.0499 73.7566 44.3233 70.141 47.7628C66.4722 51.2544 61.9792 53.0002 56.6621 53.0002C51.4514 53.0002 47.437 51.5671 44.619 48.7008C41.6946 45.7303 40.445 41.6915 40.8704 36.5843H49.8829C49.617 39.19 50.2019 41.1182 51.6375 42.369C53.1263 43.6197 55.067 44.2451 57.4597 44.2451C60.0119 44.2451 62.2451 43.3591 64.1592 41.5873C65.9139 39.9196 66.9507 37.7048 67.2697 34.9427C67.6951 29.8877 64.7707 27.3601 58.4965 27.3601H44.1404L48.7663 1.01647H77L76.1227 9.77163H56.4229L54.3492 20.8719Z" fill="white"/>
<path d="M113.739 107.757C118.286 107.757 121.959 109.011 124.757 111.52C127.555 113.969 129.362 117.612 130.178 122.451L153 106.323L153 115.462L130.528 130.066L130.528 139.922L153 139.922L153 147L98 147L98 127.378C98 121.047 99.4865 116.209 102.459 112.864C105.432 109.459 109.192 107.757 113.739 107.757ZM125.719 127.916C125.719 123.675 124.728 120.479 122.746 118.329C120.705 116.119 118.053 115.014 114.789 115.014C111.466 115.014 108.843 116.089 106.919 118.239C104.937 120.33 103.946 123.376 103.946 127.378L103.946 139.922L125.719 139.922L125.719 127.916Z" fill="white"/>
<path d="M98 101.012L98 93.9336L153 93.9336L153 101.012L98 101.012Z" fill="white"/>
<path d="M98 68.3741C98 59.8923 100.507 53.1128 105.52 48.0357C110.475 42.8988 117.149 40.3304 125.544 40.3304C133.88 40.3304 140.554 42.8988 145.568 48.0357C150.523 53.1128 153 59.8923 153 68.3741L153 84.9495L98 84.9495L98 68.3741ZM146.967 77.8713L146.967 68.3741C146.967 62.1023 144.955 57.1148 140.933 53.4115C136.853 49.7081 131.694 47.8565 125.456 47.8565C119.219 47.8565 114.118 49.738 110.154 53.5011C106.132 57.2044 104.121 62.1621 104.121 68.3741L104.121 77.8713L146.967 77.8713Z" fill="white"/>
<path d="M98 34.6739L98 3.57628e-07L103.946 9.77224e-08L103.946 27.5958L122.396 27.5958L122.396 1.61274L128.254 1.61274L128.254 27.5958L146.967 27.5958L146.967 -1.78277e-06L153 -2.0465e-06L153 34.6739L98 34.6739Z" fill="white"/>
<path d="M4.24779 142.575H16.0708L15.7168 146.504H0L0.353982 142.504C0.542773 140.593 1.07375 139.083 1.9469 137.973C2.77286 136.935 4.0354 136.05 5.73451 135.319L10.1947 133.513C12.059 132.735 13.0619 131.507 13.2035 129.832C13.2979 128.982 13.0855 128.263 12.5664 127.673C12.0708 127.059 11.3038 126.752 10.2655 126.752C9.22714 126.752 8.34218 127.035 7.61062 127.602C6.87906 128.168 6.39528 129.006 6.15929 130.115H1.84071C2.12389 127.755 3.07965 125.973 4.70796 124.77C6.28908 123.59 8.22419 123 10.5133 123C12.6844 123 14.4071 123.637 15.6814 124.912C17.0029 126.233 17.5693 127.861 17.3805 129.796C17.2153 131.708 16.6372 133.242 15.646 134.398C14.6785 135.555 13.2507 136.534 11.3628 137.336L6.83186 139.177C5.9823 139.507 5.35693 139.885 4.95575 140.31C4.55457 140.711 4.33038 141.254 4.28319 141.938L4.24779 142.575Z" fill="white"/>
<path d="M30.3327 123C32.9758 123 34.9699 123.979 36.315 125.938C37.7309 128.038 38.2501 131.059 37.8725 135C37.5185 138.917 36.433 141.926 34.6159 144.027C32.8696 146.009 30.6867 147 28.0672 147C25.4477 147 23.4536 146.009 22.0849 144.027C20.6926 141.973 20.1852 138.965 20.5628 135C20.9404 131.012 22.0141 127.991 23.784 125.938C25.5067 123.979 27.6896 123 30.3327 123ZM33.8371 135C34.0967 132.357 33.8843 130.351 33.1999 128.982C32.5156 127.59 31.43 126.894 29.9433 126.894C28.4802 126.894 27.2766 127.59 26.3327 128.982C25.3887 130.351 24.787 132.357 24.5274 135C24.2914 137.619 24.5038 139.614 25.1645 140.982C25.8489 142.351 26.9345 143.035 28.4212 143.035C29.9079 143.035 31.1114 142.351 32.0318 140.982C32.9758 139.614 33.5775 137.619 33.8371 135Z" fill="white"/>
<path d="M43.8634 142.575H55.6864L55.3324 146.504H39.6156L39.9696 142.504C40.1584 140.593 40.6893 139.083 41.5625 137.973C42.3885 136.935 43.651 136.05 45.3501 135.319L49.8103 133.513C51.6746 132.735 52.6775 131.507 52.8191 129.832C52.9135 128.982 52.7011 128.263 52.182 127.673C51.6864 127.059 50.9194 126.752 49.8811 126.752C48.8427 126.752 47.9578 127.035 47.2262 127.602C46.4946 128.168 46.0109 129.006 45.7749 130.115H41.4563C41.7395 127.755 42.6952 125.973 44.3236 124.77C45.9047 123.59 47.8398 123 50.1289 123C52.3 123 54.0227 123.637 55.297 124.912C56.6185 126.233 57.1849 127.861 56.9961 129.796C56.8309 131.708 56.2528 133.242 55.2616 134.398C54.2941 135.555 52.8663 136.534 50.9784 137.336L46.4474 139.177C45.5979 139.507 44.9725 139.885 44.5713 140.31C44.1702 140.711 43.946 141.254 43.8988 141.938L43.8634 142.575Z" fill="white"/>
<path d="M69.0987 126.894C66.8096 126.894 65.3819 127.861 64.8155 129.796H60.7093C61.1577 127.437 62.1607 125.714 63.7182 124.628C65.2757 123.543 67.14 123 69.3111 123C71.6238 123 73.4409 123.59 74.7624 124.77C76.1312 125.973 76.7211 127.531 76.5323 129.442C76.2728 131.92 74.9748 133.584 72.6385 134.434C73.8421 134.906 74.7742 135.614 75.435 136.558C76.1194 137.478 76.4026 138.552 76.2846 139.779C76.1902 140.982 75.8952 142.009 75.3996 142.858C74.9276 143.708 74.2905 144.44 73.4881 145.053C71.8362 146.351 69.7713 147 67.2934 147C64.9335 147 63.0102 146.339 61.5235 145.018C59.8716 143.578 59.1518 141.655 59.3642 139.248H63.5412C63.494 140.428 63.8362 141.36 64.5677 142.044C65.2993 142.705 66.3141 143.035 67.612 143.035C68.9335 143.035 69.9837 142.717 70.7624 142.08C71.5412 141.442 71.9896 140.628 72.1076 139.637C72.202 138.646 71.9424 137.879 71.3288 137.336C70.7152 136.794 69.7005 136.522 68.2846 136.522H65.4881L65.8067 133.124H68.2492C69.4527 133.124 70.4085 132.841 71.1164 132.274C71.8244 131.708 72.2138 130.965 72.2846 130.044C72.379 129.1 72.1666 128.345 71.6474 127.779C71.1518 127.189 70.3023 126.894 69.0987 126.894Z" fill="white"/>
</svg>
