<svg height="78" viewBox="0 0 96 78" width="96" xmlns="http://www.w3.org/2000/svg"><g fill="#1a1919" fill-rule="evenodd"><path d="m37.317225.309375v18.33225l36.6675 36.666h18.33225z"/><path d="m.6504 55.307625 36.66675-36.666v18.33375l-18.3315 18.33225z"/><path d="m55.651575 55.307625-18.33225-18.33225v18.33225z"/><g transform="translate(36.75 61.5)"><path d="m7.7838.434625h4.071v1.21875h-2.75175v1.11975h2.59725v1.215h-2.59725v1.2195h2.90475v1.218h-4.224z"/><path d="m14.26095.434625h1.797l2.54625 4.16325h.0165v-4.16325h1.3185v5.991h-1.725l-2.6145-4.26375h-.01575v4.26375h-1.323z"/><path d="m23.26395 1.601325h-1.7085v-1.167h4.7385v1.167h-1.7115v4.82475h-1.3185z"/><path d="m33.427725 1.99095c-.26325-.312-.645-.4875-1.1385-.4875-.99675 0-1.7325.81225-1.7325 1.929 0 1.11525.73575 1.929 1.6935 1.929.5325 0 .96225-.23925 1.2345-.64425l1.0995.82125c-.498.7125-1.3455 1.041-2.1675 1.041-1.872 0-3.23175-1.227-3.23175-3.147 0-1.92375 1.35975-3.14775 3.23175-3.14775.66975 0 1.51725.22575 2.02425.879z"/><path d="m38.6631 5.3616c1.125 0 1.86225-.81375 1.86225-1.929 0-1.1175-.73725-1.92975-1.86225-1.92975-1.12575 0-1.863.81225-1.863 1.92975 0 1.11525.73725 1.929 1.863 1.929m0-5.0775c1.87275 0 3.23475 1.22475 3.23475 3.1485 0 1.92-1.362 3.147-3.23475 3.147-1.86825 0-3.234-1.227-3.234-3.147 0-1.92375 1.36575-3.1485 3.234-3.1485"/><path d="m43.42455.434625h1.323v4.773h2.44425v1.218h-3.76725z"/><path d="m51.577875 1.89945c-.2115-.2685-.6375-.396-.957-.396-.37425 0-.88875.1635-.88875.6165 0 1.0905 2.7585.38925 2.7585 2.487 0 1.33725-1.07475 1.9725-2.31 1.9725-.774 0-1.44975-.22725-2.0175-.7515l.94425-1.03575c.2685.35775.708.56925 1.14975.56925.42975 0 .912-.204.912-.62775 0-1.09875-2.80875-.50775-2.80875-2.50575 0-1.27875 1.10775-1.94325 2.286-1.94325.67575 0 1.32825.177 1.83225.6255z"/><path d="m7.7073 10.0227h1.32075v2.23425h2.5635v-2.23425h1.31925v5.991h-1.31925v-2.58975h-2.5635v2.58975h-1.32075z"/><path d="m17.38035 11.7681-.72675 1.85925h1.464zm-.50625-1.74525h1.08975l2.60625 5.991h-1.48875l-.51825-1.26675h-2.325l-.49875 1.26675h-1.458z"/><path d="m22.2942 10.0227h1.31925v4.773h2.445v1.218h-3.76425z"/><path d="m27.710475 10.0227h1.32v4.773h2.4465v1.218h-3.7665z"/><path d="m33.1494 10.0227h4.07325v1.21725h-2.754v1.1175h2.59875v1.22025h-2.59875v1.218h2.9055v1.218h-4.22475z"/><path d="m39.702375 10.0227h1.797l2.5455 4.1625h.0165v-4.1625h1.31925v5.991h-1.725l-2.61675-4.26375h-.015v4.26375h-1.3215z"/><path d="m52.747575 15.59205c-.78225.408-1.63575.57525-2.51775.57525-1.86975 0-3.23475-1.22925-3.23475-3.14775 0-1.92075 1.365-3.15075 3.23475-3.15075.948 0 1.78725.21075 2.3895.7725l-.9315 1.01475c-.3585-.372-.7875-.56925-1.458-.56925-1.12275 0-1.85925.81675-1.85925 1.93275 0 1.11675.7365 1.9275 1.85925 1.9275.576 0 .99825-.15975 1.24425-.29625v-.97125h-1.074v-1.218h2.3475z"/><path d="m54.648225 10.0227h4.06875v1.21725h-2.74725v1.1175h2.59875v1.22025h-2.59875v1.218h2.90175v1.218h-4.22325z"/><path d="m4.8087 1.99095c-.2625-.312-.6435-.4875-1.13625-.4875-.99825 0-1.734.81225-1.734 1.929 0 1.11525.73575 1.929 1.69425 1.929.5325 0 .9645-.23925 1.23375-.64425l1.10175.82125c-.5025.7125-1.347 1.041-2.1675 1.041-1.869 0-3.23175-1.227-3.23175-3.147 0-1.92375 1.36275-3.14775 3.23175-3.14775.669 0 1.515.22575 2.0235.879z"/><path d="m4.8087 11.578425c-.2625-.31125-.6435-.49125-1.13625-.49125-.99825 0-1.734.81675-1.734 1.93275s.73575 1.92675 1.69425 1.92675c.5325 0 .9645-.234 1.23375-.642l1.10175.8205c-.5025.714-1.347 1.04175-2.1675 1.04175-1.869 0-3.23175-1.22925-3.23175-3.147 0-1.9215 1.36275-3.15075 3.23175-3.15075.669 0 1.515.2295 2.0235.8805z"/></g></g></svg>