<svg width="181" height="140" viewBox="0 0 181 140" fill="none" xmlns="http://www.w3.org/2000/svg">
<g clip-path="url(#clip0)">
<path fill-rule="evenodd" clip-rule="evenodd" d="M38.9296 112.42L29.9756 138.428H33.5423L34.8807 134.453H45.4321L46.8059 138.428H50.3745L41.3816 112.42H38.9296ZM40.1918 117.956L44.3917 131.369H35.9215L40.1918 117.956Z" fill="#141414"/>
<path fill-rule="evenodd" clip-rule="evenodd" d="M53.47 112.42V138.428H65.3579V135.382H56.8488V112.42H53.47Z" fill="#141414"/>
<path fill-rule="evenodd" clip-rule="evenodd" d="M53.4692 138.428V112.42H56.8499V135.38H65.359V138.428H53.4692Z" fill="#141414"/>
<path fill-rule="evenodd" clip-rule="evenodd" d="M69.2689 138.428V112.42H78.1487C84.4275 112.42 86.0619 116.655 86.0619 119.628C86.0619 123.01 83.7967 124.941 81.7523 125.313C83.6846 125.72 86.2482 127.543 86.2482 131.11C86.2482 134.079 84.5765 138.428 78.3346 138.428H69.2689ZM72.6493 123.751H78.223C81.6053 123.751 82.6815 121.411 82.6815 119.628C82.6815 117.883 81.6053 115.465 78.1487 115.465H72.6493V123.751ZM72.6493 135.38H78.3346C81.7523 135.38 82.8674 132.931 82.8674 131.145C82.8674 129.252 81.6407 126.834 78.4073 126.834H72.6493V135.38Z" fill="#141414"/>
<path fill-rule="evenodd" clip-rule="evenodd" d="M91.2369 138.428H94.7309V112.42H91.2369V138.428Z" fill="#141414"/>
<path fill-rule="evenodd" clip-rule="evenodd" d="M112.569 111.826C120.893 111.826 125.982 118.364 125.982 125.425C125.982 132.446 120.893 139.024 112.607 139.024C104.247 139.024 99.1569 132.482 99.1569 125.425C99.1569 118.364 104.247 111.826 112.569 111.826V111.826ZM112.569 135.976C118.662 135.976 122.415 130.849 122.415 125.425C122.415 119.926 118.662 114.873 112.569 114.873C106.477 114.873 102.687 119.961 102.687 125.425C102.687 130.849 106.477 135.976 112.569 135.976V135.976Z" fill="#141414"/>
<path fill-rule="evenodd" clip-rule="evenodd" d="M130.382 138.428V112.42H134.135L145.839 132.523V112.42H149.219V138.428H145.467L133.763 118.328V138.428H130.382Z" fill="#141414"/>
<path fill-rule="evenodd" clip-rule="evenodd" d="M135.935 96.8637L135.641 96.7886C135.183 96.6723 134.867 96.3311 134.774 95.8523L135.383 95.7356C135.488 95.2148 135.319 93.663 135.136 92.9362C135.038 92.5478 134.953 92.1591 134.868 91.7723C134.783 91.3863 134.699 91.0023 134.602 90.6218C134.577 90.5283 134.547 90.4575 134.508 90.3675C134.44 90.2083 134.354 90.0094 134.308 89.682L134.295 89.5912L134.31 89.5004C134.356 89.2339 134.359 88.9674 134.316 88.708C134.28 88.3684 134.23 88.0645 134.177 87.743C134.042 86.927 133.903 86.0842 134.078 85.1877C134.4 83.5364 135.683 81.7487 136.874 80.6305C137.109 80.4103 137.533 80.103 137.809 79.9379C138.509 79.5196 138.94 79.248 138.984 78.7709C139.007 78.5319 138.674 77.7489 138.387 77.3515C138.315 77.298 138.244 77.2391 138.176 77.1813C137.973 77.0115 137.499 76.6137 137.394 76.5453C137.548 76.6452 137.301 76.5139 137.301 76.5139C137.265 76.4742 137.234 76.4349 137.208 76.3963C136.533 75.523 135.793 74.6885 135.009 73.9133C134.569 73.7207 134.526 73.7384 133.867 74.0128C132.725 74.4864 131.98 74.5611 130.913 74.3072C130.545 74.2211 130.194 74.0887 129.855 73.9605C129.494 73.8237 129.152 73.6952 128.817 73.6299C128.555 73.5792 128.295 73.5321 128.036 73.4853C127.24 73.3414 126.418 73.1925 125.59 72.9444C123.867 72.4287 123.039 72.3148 122.343 73.3878C122.167 73.6598 122.082 74.0321 121.992 74.4259C121.894 74.8488 121.794 75.2867 121.564 75.6723C120.849 76.8692 119.963 76.3798 119.433 76.0878C119.312 76.021 119.182 75.9486 119.037 75.8787L118.913 75.8189C118.341 75.5403 118.148 75.4451 117.632 75.4895C117.326 75.5147 117.136 75.5717 116.934 75.6318C116.584 75.736 116.223 75.8441 115.56 75.6979C114.897 75.5524 113.683 75.0969 113.13 74.6193C112.75 74.2931 112.343 73.8402 111.961 73.3996L111.924 73.3576C111.536 72.9098 111.202 72.5231 111.149 71.7373C111.122 71.3478 111.22 70.9732 111.305 70.643C111.35 70.4693 111.393 70.3054 111.411 70.1631C111.465 69.75 111.531 69.3255 111.597 68.8963C111.74 67.9733 111.887 67.019 111.912 66.1354C111.959 64.4888 111.396 62.9444 110.284 61.6682C109.254 60.4846 108.035 59.1867 106.458 58.5138C105.431 60.1957 104.063 60.204 102.367 60.2138L101.927 60.2174C101.22 60.2276 100.513 60.1517 99.8309 60.0798C98.9335 59.9847 98.0059 59.8864 97.0708 59.9823L96.5472 60.0361L96.4407 59.5204C96.3715 59.1852 96.3833 58.8986 96.3935 58.6459C96.4042 58.3798 96.4136 58.1502 96.3322 57.8633C96.2249 57.4879 96.1266 57.0665 96.0233 56.6204C95.7756 55.5591 95.4954 54.3563 95.0418 53.6186C95.0225 53.5867 95.0048 53.558 94.9883 53.5317C94.892 53.6068 94.7753 53.6905 94.631 53.7758C94.4188 53.9016 94.2108 53.99 94.0096 54.0757C93.8142 54.1586 93.6299 54.2372 93.4687 54.341C93.2636 54.4715 93.0666 54.6464 92.8587 54.8319C92.4114 55.2301 91.9043 55.6814 91.1732 55.8024C91.1677 55.8083 90.3898 55.7843 89.8698 55.6173C89.3262 55.6181 88.7826 55.6763 88.2523 55.7902C88.0193 55.8272 87.8062 55.8453 87.5912 55.863C87.2952 55.8877 86.9894 55.9129 86.7571 55.9773L86.1152 56.155C85.8448 56.2297 85.6208 55.9384 85.7627 55.6963L86.0991 55.1216C86.1833 54.9782 86.2552 54.8127 86.331 54.6378C86.4588 54.3442 86.603 54.0116 86.8412 53.716C87.0437 53.4645 87.265 53.3269 87.4261 53.2271C87.6172 53.108 87.6749 53.0722 87.7355 52.8914C87.8432 52.5695 87.6569 52.3486 87.0036 51.8042C86.844 51.6717 86.6852 51.5384 86.5405 51.4009C86.23 51.1053 85.9509 50.7818 85.6809 50.4689C84.9942 49.6722 84.3964 48.9776 83.5273 49.0102C82.9448 49.0275 82.3764 49.318 82.1453 49.7158C81.9928 49.9788 82.0018 50.2637 82.1736 50.5868C82.2255 50.6843 82.3135 50.7755 82.4248 50.8907C82.595 51.0672 82.8068 51.2869 82.9633 51.6226C83.0717 51.8533 83.1366 52.0604 83.1936 52.2432C83.2502 52.4236 83.295 52.5679 83.3705 52.7059C83.4778 52.904 83.475 53.1429 83.3453 53.3273L83.3092 53.3788C83.0827 53.7011 82.6472 53.8084 82.3029 53.6174C81.571 53.2121 80.9217 52.7043 80.2888 52.2102C79.9716 51.9622 79.6434 51.7059 79.3164 51.4724C78.0295 50.5546 76.5846 49.7669 75.1102 49.1773C74.9172 49.5763 74.7596 50.0389 74.5949 50.5212C74.3005 51.384 73.9962 52.2754 73.4306 52.9598C73.282 53.1386 73.128 53.2962 72.9794 53.4488C72.5985 53.8395 72.2978 54.1476 72.1909 54.6669C72.1535 54.8453 72.1771 55.0961 72.2015 55.3618C72.2561 55.9471 72.3237 56.6758 71.8198 57.3193L71.5789 57.6266L71.2031 57.5205C70.8957 57.4337 69.8392 57.107 69.1537 56.5536C68.7641 56.2376 68.4906 55.8366 68.2488 55.4825C68.0495 55.19 67.8609 54.9141 67.6431 54.7337C67.3908 54.5234 66.9847 54.3984 66.5551 54.2659C66.0944 54.1236 65.6176 53.977 65.2163 53.6936C64.8645 53.4456 64.6149 53.2047 64.3944 52.992C64.0866 52.6948 63.8433 52.4602 63.3803 52.2566C62.8398 52.0188 62.2836 51.6469 61.7455 51.2869C60.3395 50.3459 59.3514 49.7657 58.4627 50.2567C57.6777 50.6886 56.9509 51.009 55.951 51.1694C55.6412 51.2181 55.5634 51.2539 55.4223 51.3183C55.3032 51.3726 55.155 51.4402 54.8936 51.5231L54.8386 51.5408C54.3315 51.7024 53.8528 51.8557 53.1936 51.6957L53.0792 51.6678L52.9845 51.5978C50.7802 49.9662 47.9768 46.7257 47.3306 42.9617C47.1506 41.9048 47.0209 41.2641 46.4466 40.3817C46.2465 40.0735 46.0406 39.7897 45.8417 39.5153C45.4828 39.0209 45.1118 38.5091 44.7804 37.8621C44.6204 37.5504 44.4388 37.2489 44.2466 36.9297C44.135 36.7442 44.0242 36.5595 43.9176 36.3736L43.6826 35.9632L44.0363 35.6487C44.4377 35.2926 45.0835 35.1437 45.6027 35.0242C45.712 34.999 45.8134 34.9758 45.9007 34.9522L46.0991 34.8964C46.4781 34.7871 46.9529 34.65 47.4344 34.7364C47.4552 34.4035 47.4033 33.9059 47.3766 33.6488C47.3373 33.2723 47.3004 32.9158 47.3287 32.6292C47.3656 32.2538 47.3373 31.8309 47.307 31.3832C47.2611 30.7008 47.21 29.9438 47.3998 29.2205C46.6416 28.5382 46.0579 27.2391 46.1475 26.2918L46.1931 25.8162L46.6683 25.7675C46.9568 25.7285 48.1458 25.2148 48.5377 24.9208C48.4182 24.4444 47.9725 23.2703 47.833 23.0522C47.7331 22.9295 47.6046 22.8395 47.4423 22.7251C47.1903 22.5475 46.8762 22.3266 46.6259 21.8812C46.4867 21.6336 46.4046 21.4115 46.3322 21.2157C46.2611 21.0239 46.2002 20.8584 46.0948 20.6953C46.0229 20.5841 45.9062 20.4823 45.7705 20.3648C45.5673 20.1883 45.3142 19.9685 45.1381 19.6333C45.0697 19.5043 45.0123 19.3762 44.9569 19.25C44.8728 19.0606 44.8005 18.8971 44.6873 18.7477C44.1448 18.0331 43.308 17.6821 42.422 17.3106C41.652 16.9871 40.8556 16.653 40.1922 16.0564L39.8993 15.7934L40.0345 15.4235C40.1147 15.2034 40.1961 15.0041 40.2723 14.8166C40.5797 14.0623 40.7491 13.6465 40.4728 12.799C40.3973 12.5675 40.1957 12.1575 39.9826 11.7232C39.2024 10.1336 38.6769 8.94737 39.0216 8.16202C39.2889 7.54962 39.6344 7.38925 40.0255 7.256C40.145 7.21512 40.2582 7.177 40.3922 7.10389C40.7106 6.93015 40.8203 6.83149 40.8556 6.79297C40.8431 6.7234 40.7916 6.58189 40.7495 6.46515C40.7055 6.3433 40.6564 6.2073 40.6084 6.05283C40.4638 5.58861 40.5003 5.16332 40.5322 4.78794C40.5467 4.61617 40.5608 4.45383 40.5577 4.29425C40.5534 4.08396 40.5121 3.79584 40.4677 3.49043C40.3124 2.41578 40.0998 0.942966 41.1654 0.195354L41.4441 0L41.7511 0.147007C42.1107 0.318777 42.4204 0.344326 42.7793 0.374199C43.1496 0.404858 43.5568 0.438662 43.9959 0.645415L44.3822 0.870642C44.4133 0.89226 44.4447 0.915058 44.4758 0.939035L44.635 1.14343C44.6684 1.20121 44.8236 1.42054 44.8846 1.50191C45.0882 1.68901 45.4856 1.86785 45.8378 2.02665C46.0355 2.11548 46.2237 2.20117 46.3825 2.28647C46.4675 2.33167 46.5457 2.37098 46.6176 2.40714C46.9262 2.5624 47.1931 2.69643 47.5189 3.0498C47.8322 3.38705 48.0554 3.75064 48.2712 4.10243C48.4686 4.42357 48.6549 4.72701 48.8954 4.98447C49.213 5.32251 49.3427 5.61298 49.4575 5.86926C49.5145 5.99622 49.568 6.1165 49.6478 6.25211C49.7767 6.46908 49.9532 6.58897 50.1764 6.7403C50.3706 6.87158 50.5899 7.02016 50.7943 7.24775C50.9983 7.47455 51.095 7.74734 51.1728 7.96706C51.2212 8.10306 51.2711 8.24378 51.3234 8.30392C51.3902 8.38017 51.5522 8.44424 51.7239 8.51224C51.9664 8.60815 52.2683 8.72764 52.5191 8.96938L52.8654 9.30348L52.6028 9.70638C52.2805 10.2012 51.729 10.489 51.1956 10.7673C50.2334 11.2688 50.0789 11.4422 50.2212 11.8596C50.2719 12.0074 50.5105 12.3419 50.6528 12.5416C50.7672 12.7019 50.8698 12.8474 50.9327 12.9543C51.1689 13.3544 51.3576 13.4476 51.7341 13.6331C51.9381 13.7337 52.1921 13.8591 52.4806 14.0549C52.9924 14.4008 53.4432 14.8504 53.8787 15.2856C54.2969 15.703 54.6916 16.0972 55.1306 16.4023C56.2642 17.1896 57.1034 18.1227 57.9922 19.1109L58.2535 19.4006C58.4245 19.5892 58.5692 19.7779 58.7087 19.9607C59.0464 20.4021 59.2904 20.7209 59.7425 20.86L59.3997 21.9732C58.5916 21.7244 58.1624 21.1631 57.7834 20.6682C57.6529 20.4976 57.5291 20.3357 57.39 20.1824L57.1262 19.8895C56.2839 18.9533 55.4887 18.0693 54.4663 17.3586C53.9424 16.9946 53.4915 16.5449 53.056 16.1098C52.6406 15.6951 52.2483 15.3032 51.8277 15.0191C51.6048 14.8681 51.4087 14.7714 51.2188 14.6779C50.788 14.4652 50.3423 14.2455 49.9292 13.5458C49.8789 13.4602 49.7955 13.3454 49.7047 13.218C49.4799 12.9028 49.2252 12.5455 49.1191 12.2362C48.6266 10.7932 49.8486 10.156 50.6571 9.73428C50.8002 9.6596 50.9453 9.58374 51.0801 9.50631C50.8647 9.41197 50.634 9.28462 50.4461 9.07C50.2476 8.84202 50.1521 8.57277 50.0754 8.35619C50.0294 8.22727 49.9779 8.08144 49.9284 8.02641C49.8191 7.90495 49.6819 7.81219 49.5231 7.70449C49.2492 7.51857 48.9084 7.28745 48.645 6.84446C48.531 6.65068 48.4583 6.48795 48.3943 6.34448C48.2952 6.12319 48.23 5.97696 48.046 5.78122C47.7237 5.4365 47.4973 5.0682 47.2787 4.71168C47.0838 4.39448 46.8998 4.09457 46.6644 3.84104C46.4804 3.64215 46.3594 3.58083 46.094 3.44758C46.015 3.40749 45.929 3.36425 45.8334 3.31355C45.6943 3.23887 45.5308 3.16576 45.3598 3.08871C44.9046 2.88393 44.3889 2.65162 44.0414 2.3073C43.9058 2.1713 43.7404 1.98105 43.6358 1.77312C43.3347 1.58917 43.0537 1.56558 42.683 1.53492C42.3882 1.51055 42.04 1.48186 41.6504 1.35726C41.4008 1.80378 41.5207 2.63472 41.6206 3.32416C41.6697 3.66613 41.7165 3.98884 41.7224 4.27184C41.7263 4.49235 41.709 4.69282 41.6925 4.88699C41.6665 5.19437 41.6437 5.46048 41.7208 5.70732C41.7628 5.84293 41.8061 5.96203 41.8446 6.06855C42.1661 6.95649 42.1146 7.49145 40.9488 8.12704C40.7271 8.24732 40.5384 8.31178 40.4009 8.35855C40.1729 8.43638 40.1729 8.43638 40.0888 8.62898C39.9465 9.00593 40.7047 10.5507 41.0282 11.2102C41.2699 11.7024 41.4787 12.1277 41.5801 12.4378C42.0172 13.7789 41.6481 14.5155 41.2786 15.4345V15.4349C41.7424 15.7623 42.2947 15.9939 42.8729 16.2364C43.8614 16.6511 44.8834 17.0799 45.6153 18.0437C45.8106 18.3019 45.9231 18.5551 46.0217 18.7787C46.0669 18.8809 46.1121 18.9843 46.1679 19.0897C46.2434 19.2327 46.3782 19.3499 46.5343 19.4855C46.7112 19.6392 46.912 19.8137 47.0732 20.0641C47.2481 20.3341 47.3416 20.588 47.4246 20.8117C47.4879 20.9823 47.5472 21.1434 47.6411 21.3109C47.7622 21.5259 47.9017 21.6241 48.1128 21.7731C48.3019 21.906 48.5369 22.0715 48.7551 22.3415C48.9886 22.6312 49.7822 24.6342 49.726 25.1429C49.6458 25.8539 48.1671 26.4891 47.331 26.7717C47.4509 27.4136 47.932 28.256 48.366 28.4926L48.8306 28.7461L48.623 29.2327C48.3695 29.8263 48.4178 30.5444 48.4689 31.305C48.5012 31.7806 48.5342 32.2723 48.4878 32.7432C48.4713 32.9126 48.5035 33.2255 48.5354 33.5285C48.6262 34.4043 48.7295 35.3976 48.1203 35.9239L47.7724 36.225L47.399 35.9557C47.1938 35.8075 46.8931 35.8795 46.4219 36.0155C46.3476 36.0371 46.2741 36.0579 46.2017 36.0776C46.1011 36.1043 45.9867 36.1306 45.8641 36.1589C45.6888 36.1994 45.4506 36.2541 45.2395 36.3209C45.2415 36.3236 45.2431 36.3264 45.2446 36.3291C45.4384 36.6507 45.6385 36.9836 45.8169 37.3303C46.1074 37.8983 46.4364 38.3515 46.7847 38.8314C46.9922 39.1176 47.2072 39.4139 47.4234 39.7472C48.1069 40.7983 48.2779 41.5888 48.4788 42.7652C49.0204 45.9196 51.411 48.945 53.5757 50.5853C53.8477 50.6281 54.0591 50.5668 54.4848 50.4312L54.5406 50.4131C54.7356 50.3514 54.839 50.3042 54.9388 50.2586C55.1585 50.1584 55.3346 50.0876 55.7682 50.0189C56.6034 49.8852 57.2033 49.6203 57.9006 49.2367C59.476 48.3676 61.0258 49.4037 62.3933 50.3188C62.9122 50.6658 63.4023 50.9941 63.8492 51.1902C64.5025 51.4775 64.8586 51.8215 65.2033 52.154C65.4117 52.3552 65.609 52.5455 65.8877 52.742C66.1377 52.9185 66.5071 53.0321 66.8979 53.1528C67.4187 53.3131 67.9568 53.479 68.3872 53.8375C68.7307 54.1217 68.9748 54.4798 69.211 54.8261C69.4264 55.1421 69.6304 55.4404 69.8863 55.648C70.1803 55.8854 70.6296 56.0949 71.053 56.249C71.0891 56.0426 71.0718 55.791 71.0419 55.4699C71.0105 55.1303 70.9779 54.7793 71.0502 54.4306C71.2259 53.5789 71.7145 53.0777 72.1457 52.6355C72.2774 52.5003 72.4106 52.3651 72.5336 52.2169C72.9629 51.6976 73.2321 50.9084 73.4927 50.1454C73.7301 49.4493 73.9758 48.7296 74.3594 48.1365L74.613 47.7446L75.0504 47.9065C76.7795 48.546 78.4882 49.4517 79.9925 50.5243C80.3403 50.7724 80.6788 51.0369 81.0058 51.2924C81.2467 51.4807 81.4834 51.6654 81.7208 51.8423C81.6795 51.7959 81.6347 51.7495 81.5863 51.6992C81.4401 51.5479 81.2746 51.3761 81.1453 51.134C80.7845 50.4548 80.7825 49.7437 81.1379 49.1313C81.5738 48.3806 82.4979 47.8763 83.4923 47.846C84.914 47.802 85.7929 48.8153 86.563 49.7083C86.8141 49.9996 87.0739 50.3007 87.3432 50.557C87.4702 50.6776 87.6097 50.7932 87.7488 50.9091C88.3687 51.4256 89.2173 52.1324 88.84 53.2609C88.6462 53.8399 88.2964 54.0572 88.0413 54.216C87.9167 54.2931 87.8267 54.3493 87.7484 54.4467C87.6895 54.5195 87.6376 54.6036 87.5889 54.6944C87.7445 54.6814 87.8974 54.6676 88.0421 54.6452C88.638 54.5155 89.2963 54.4432 89.9323 54.4526L90.5691 54.5666C90.755 54.6 90.9437 54.6319 91.038 54.6433C91.4091 54.5627 91.7227 54.2836 92.084 53.9621C92.3178 53.7542 92.5592 53.5392 92.841 53.3595C93.0831 53.2039 93.3335 53.0977 93.5536 53.0038C93.7278 52.9299 93.8917 52.8599 94.0379 52.7735C94.1939 52.6811 94.3052 52.5879 94.4031 52.5058C94.5815 52.3568 94.8256 52.1524 95.1786 52.2102C95.5551 52.2711 95.7709 52.5797 96.0347 53.0089C96.5865 53.9079 96.89 55.2085 97.1573 56.3559C97.2579 56.7878 97.353 57.1959 97.4525 57.5449C97.5971 58.0563 97.5661 58.4415 97.5535 58.7831C98.3868 58.7551 99.1808 58.8393 99.9539 58.9214C100.632 58.9933 101.267 59.0621 101.912 59.0527L102.36 59.0492C104.127 59.0385 104.933 59.0338 105.668 57.5335L105.892 57.076L106.375 57.2375C108.452 57.9309 109.935 59.4933 111.163 60.9032C112.47 62.404 113.132 64.2247 113.076 66.1684C113.05 67.1247 112.896 68.1156 112.748 69.0743C112.683 69.4937 112.619 69.9084 112.567 70.3125C112.539 70.5275 112.484 70.7354 112.433 70.9363C112.363 71.2039 112.297 71.4563 112.311 71.6579C112.338 72.0557 112.465 72.2027 112.805 72.595L112.841 72.6367C113.061 72.8902 113.522 73.42 113.89 73.7373C114.236 74.0364 115.223 74.4318 115.809 74.5599C116.179 74.6417 116.32 74.6 116.601 74.5155C116.827 74.4483 117.109 74.3642 117.535 74.3288C118.371 74.2581 118.812 74.4739 119.423 74.7718L119.543 74.83C119.707 74.909 119.858 74.9919 119.996 75.0678C120.137 75.1464 120.326 75.2502 120.416 75.2745C120.442 75.2506 120.492 75.1947 120.564 75.0753C120.7 74.8469 120.776 74.5159 120.856 74.1657C120.96 73.7129 121.078 73.1999 121.365 72.7546C122.61 70.8368 124.448 71.3867 125.925 71.8285C126.69 72.0585 127.444 72.1949 128.243 72.3395C128.507 72.3871 128.772 72.435 129.038 72.4865C129.471 72.5706 129.876 72.7231 130.266 72.8709C130.584 72.9908 130.885 73.1044 131.181 73.174C132.015 73.3725 132.495 73.3218 133.42 72.9374C134.325 72.5612 134.629 72.4716 135.576 72.891L135.673 72.9334L135.749 73.0073C136.577 73.8186 137.358 74.6928 138.072 75.609C138.283 75.7509 138.553 75.9769 138.924 76.289C139.04 76.3861 139.13 76.4624 139.163 76.4871L139.275 76.5937L139.564 77.0425C139.853 77.55 140.198 78.322 140.144 78.8813C140.044 79.954 139.189 80.4681 138.502 80.8812C138.246 81.0345 138.004 81.18 137.832 81.3329C136.774 82.2719 135.506 83.9483 135.221 85.4105C135.086 86.1019 135.203 86.8067 135.326 87.5527C135.379 87.8778 135.435 88.2139 135.47 88.5547C135.524 88.8778 135.526 89.237 135.474 89.5979C135.498 89.7217 135.532 89.7991 135.578 89.9072C135.625 90.0153 135.682 90.1493 135.729 90.3309C135.831 90.7264 135.918 91.1234 136.005 91.5227C136.088 91.8973 136.17 92.2743 136.266 92.6516C136.274 92.6846 137.037 95.9125 136.165 96.6656L135.935 96.8637Z" fill="#141414"/>
</g>
<defs>
<clipPath id="clip0">
<rect width="181" height="140" fill="white"/>
</clipPath>
</defs>
</svg>
