<?xml version="1.0" standalone="no"?>
<!DOCTYPE svg PUBLIC "-//W3C//DTD SVG 20010904//EN"
 "http://www.w3.org/TR/2001/REC-SVG-20010904/DTD/svg10.dtd">
<svg version="1.0" xmlns="http://www.w3.org/2000/svg"
 width="700.000000pt" height="700.000000pt" viewBox="0 0 700.000000 700.000000"
 preserveAspectRatio="xMidYMid meet">
<metadata>
Created by potrace 1.11, written by Peter Selinger 2001-2013
</metadata>
<g transform="translate(0.000000,700.000000) scale(0.100000,-0.100000)"
fill="#000000" stroke="none">
<path d="M4808 5442 c-32 -37 -76 -87 -99 -112 -37 -41 -130 -146 -170 -192
-19 -22 -139 -156 -154 -172 -6 -6 -42 -47 -80 -91 -39 -44 -73 -82 -76 -85
-3 -3 -39 -43 -80 -90 -40 -47 -78 -90 -84 -96 -14 -15 -115 -128 -276 -309
-73 -82 -138 -155 -143 -161 -6 -6 -36 -40 -66 -74 -30 -35 -62 -71 -70 -80
-105 -120 -155 -175 -208 -234 -35 -38 -82 -91 -104 -118 -23 -26 -46 -48 -52
-48 -6 0 -42 30 -81 67 -77 73 -157 148 -350 329 -72 67 -152 142 -179 167
l-49 46 -64 -107 c-35 -59 -68 -114 -74 -122 -19 -30 -382 -636 -401 -670 -11
-19 -33 -56 -50 -82 -16 -26 -27 -51 -25 -55 3 -5 41 -31 84 -57 118 -75 181
-115 253 -161 36 -23 72 -44 80 -48 8 -4 27 -15 42 -25 14 -9 47 -30 73 -45
l47 -29 26 30 c15 17 52 58 82 93 70 79 149 167 235 263 6 6 41 47 80 91 38
44 74 85 80 91 5 6 50 56 100 112 l89 102 25 -23 c14 -12 55 -50 91 -84 36
-33 81 -75 100 -93 19 -18 91 -85 160 -150 69 -64 141 -132 160 -150 19 -18
88 -82 154 -144 65 -61 137 -128 160 -149 22 -22 97 -92 166 -157 69 -65 141
-132 160 -150 45 -42 262 -245 310 -290 43 -40 253 -238 320 -300 25 -23 72
-68 105 -99 l60 -57 620 1 c341 1 623 3 627 4 5 1 -20 68 -62 166 -4 11 -35
90 -68 175 -33 85 -99 252 -145 370 -47 118 -151 384 -232 590 -81 206 -194
493 -251 638 -57 145 -104 265 -104 268 0 4 -7 20 -15 37 -8 18 -46 115 -85
217 -40 102 -78 199 -85 215 -7 17 -32 80 -55 140 -23 61 -49 127 -57 148 -9
20 -84 211 -168 424 -83 213 -156 388 -161 390 -5 1 -35 -28 -66 -65z"/>
<path d="M1076 2798 c-148 -370 -279 -698 -291 -728 -75 -178 -134 -333 -130
-340 2 -3 83 -6 180 -6 l175 1 14 25 c7 14 104 175 215 358 110 184 201 338
201 343 0 5 5 9 10 9 6 0 10 4 10 8 0 5 90 159 200 342 110 183 199 337 198
341 -3 7 -365 239 -374 239 -1 0 -30 18 -63 40 -33 22 -64 40 -68 40 -5 0
-129 -303 -277 -672z"/>
</g>
</svg>
