<svg height="132" viewBox="0 0 132 132" width="132" xmlns="http://www.w3.org/2000/svg"><g fill="none" fill-rule="evenodd"><path d="m0 0h132v132h-132z" fill="#141414"/><path d="m5.55608924.34210526c.60951524 0 1.13154593.08102112 1.56610772.24306579s.79857238.3939327 1.09204268.69567106c.60951525.5923012.94812975 1.39133707 1.01585366 2.39713157l-2.01477642.40231579c-.09029856-.56995021-.28500189-1.02813861-.58411586-1.37457894-.29911396-.34644033-.70262957-.5196579-1.21055894-.5196579-.67723916 0-1.25852738.31290915-1.74388211.93873684-.49664205.67052967-.81268225 1.62602012-.94813008 2.8665-.10158588 1.2181289.01128562 2.16523785.33861788 2.84135527.32733226.67611741.8380758 1.01417105 1.53224594 1.01417105s1.23030976-.18718673 1.60843496-.56156579c.37812519-.37437906.59540283-.84653662.65183943-1.41648684h1.99784553c-.12416052 1.22930439-.57000294 2.17641334-1.33754065 2.84135524-.76753772.6649419-1.77209407.9974079-3.01369919.9974079-1.32061636 0-2.32235092-.5028897-3.00523374-1.5086842s-.93402191-2.40829802-.7534248-4.20755263.71673674-3.20175813 1.60843496-4.20755263c.85783627-.96109252 1.92447194-1.44163158 3.19993903-1.44163158zm5.80729676.21792106h6.4168089l-.1693089 1.76013157h-4.5544106l-.2708943 2.79944737h4.2665854l-.169309 1.77689474h-4.2665853l-.2708943 2.79944737h4.5544105l-.152378 1.77689473h-6.416809zm10.9712195 0 3.5893496 7.644.7280284-7.644h1.8623984l-1.0327845 10.91281578h-1.8793293l-3.7247967-7.91221052-.7449594 7.91221052h-1.8623984l1.0327846-10.91281578zm7.6696951 0h7.9744512l-.1693089 1.76013157h-3.0644919l-.8804065 9.15268421h-1.8454675l.8804065-9.15268421h-3.0644918zm17.2187195-.21792106c.6095153 0 1.131546.08102112 1.5661078.24306579.4345617.16204467.7985723.3939327 1.0920426.69567106.6095153.5923012.9481298 1.39133707 1.0158537 2.39713157l-2.0147764.40231579c-.0902986-.56995021-.2850019-1.02813861-.5841159-1.37457894-.2991139-.34644033-.7026296-.5196579-1.2105589-.5196579-.6772392 0-1.2585274.31290915-1.7438821.93873684-.4966421.67052967-.8126823 1.62602012-.9481301 2.8665-.1015859 1.2181289.0112856 2.16523785.3386179 2.84135527.3273322.67611741.8380758 1.01417105 1.5322459 1.01417105s1.2303098-.18718673 1.608435-.56156579.5954028-.84653662.6518394-1.41648684h1.9978455c-.1241605 1.22930439-.5700029 2.17641334-1.3375406 2.84135524s-1.7720941.9974079-3.0136992.9974079c-1.3206164 0-2.3223509-.5028897-3.0052338-1.5086842-.6828828-1.0057945-.9340219-2.40829802-.7534248-4.20755263.1805972-1.79925461.7167368-3.20175813 1.608435-4.20755263.8578363-.96109252 1.9244719-1.44163158 3.199939-1.44163158zm9.938435 0c1.3770529 0 2.4211143.47495139 3.1322154 1.42486842.7562504.98344352 1.0440728 2.39712236.8634756 4.24107895-.1693097 1.85513208-.7280237 3.28557392-1.6761585 4.29136847-.8804109.9387415-2.0147695 1.4081052-3.4031097 1.4081052-1.3657657 0-2.4098271-.480539-3.1322155-1.4416316-.7336757-.98344348-1.0102109-2.40270999-.8296138-4.25784207.1693098-1.85513208.7223801-3.27998625 1.6592276-4.27460526.8691236-.92756604 1.9978386-1.39134211 3.3861789-1.39134211zm2.0655691 5.68271053c.1241605-1.22930439-.0197507-2.17920717-.4317378-2.84973684-.4119872-.67052967-1.0130279-1.00578948-1.8031403-1.00578948-.7901123 0-1.4532324.33805364-1.98938 1.01417106-.5361477.67611741-.8634751 1.62881403-.9819919 2.85811842-.1185169 1.22930439.0253943 2.17361951.4317378 2.83297368.4063435.65935418 1.0073842.98902632 1.8031402.98902632.7957561 0 1.4588761-.33246598 1.9893801-.9974079s.8578314-1.61205087.9819919-2.84135526zm5.2655081 3.67113158h4.0464838l-.1523781 1.77689473h-5.9088821l1.0327846-10.91281578h1.8623983zm11.6484553-6.08502632c-.0790112-.94991703-.6377251-1.42486842-1.6761585-1.42486842-.5079294 0-.9142668.11175327-1.2190244.33526316s-.4740649.49451156-.5079268.81301316c-.033862.31850159.0338609.56435878.2031707.73757894.1693098.17322017.4402014.33805624.8126829.49451316l2.0825.93873684c.7111011.32408934 1.2387754.72360728 1.5830386 1.19856579.3442633.47495852.4825309 1.07004467.4148069 1.78527632-.0902985 1.0057945-.5022795 1.793655-1.2359552 2.3636053-.7336758.5699502-1.726945.854921-2.9798374.854921-1.1061573 0-1.9752679-.2961461-2.6073578-.8884474-.7111011-.6705296-1.0214977-1.59249409-.9311992-2.76592101h1.8454675c-.0564366.6146522.0987617 1.06445911.4655996 1.34943422.3668379.2849751.8267893.42746052 1.3798679.42746052.5530787 0 1.01303-.11175327 1.3798679-.33526316s.5700066-.52524371.6095122-.90521052-.0253955-.66773148-.1947053-.86330263c-.1693098-.19557116-.4571321-.38275788-.8634756-.56156579l-1.9131911-.87168421c-.744963-.32408934-1.2980334-.70684429-1.6592276-1.14827632s-.5079272-1.04769351-.4402033-1.81880263c.0902986-.89403956.4853488-1.60926048 1.1851626-2.14568421.7111012-.55877473 1.6310039-.8381579 2.7597358-.8381579s1.9696246.28776467 2.5227033.86330263c.5530786.57553797.8239702 1.37736767.8126829 2.40551316zm-70.58489836 10.41539475c.60951524 0 1.13154593.0810211 1.56610772.2430658.43456179.1620446.79857238.3939327 1.09204268.695671.60951525.5923012.94812975 1.3913371 1.01585366 2.3971316l-2.01477642.4023158c-.09029856-.5699502-.28500189-1.0281386-.58411586-1.3745789-.29911396-.3464404-.70262957-.5196579-1.21055894-.5196579-.67723916 0-1.25852738.3129091-1.74388211.9387368-.49664205.6705297-.81268225 1.6260201-.94813008 2.8665-.10158588 1.2181289.01128562 2.1652378.33861788 2.8413553.32733226.6761174.8380758 1.014171 1.53224594 1.014171s1.23030976-.1871867 1.60843496-.5615658c.37812519-.374379.59540283-.8465366.65183943-1.4164868h1.99784553c-.12416052 1.2293044-.57000294 2.1764133-1.33754065 2.8413552-.76753772.664942-1.77209407.9974079-3.01369919.9974079-1.32061636 0-2.32235092-.5028897-3.00523374-1.5086842s-.93402191-2.408298-.7534248-4.2075526.71673674-3.2017581 1.60843496-4.2075526c.85783627-.9610926 1.92447194-1.4416316 3.19993903-1.4416316zm7.68662606.217921-.4402033 4.5260527h4.2835163l.4402032-4.5260527h1.8454675l-1.0327846 10.9128158h-1.8623983l.4232723-4.5931052h-4.2665853l-.4232724 4.5931052h-1.8623984l1.0327846-10.9128158zm11.2421138 0h2.3364634l2.2179471 10.9128158h-1.9809146l-.4571341-2.3133158h-3.6570732l-.9142683 2.3133158h-1.9470528zm-.9142683 7.0572895h2.725874l-.9142683-4.6433947zm9.2104065 2.0786316h4.0464837l-.152378 1.7768947h-5.9088821l1.0327845-10.9128158h1.8623984zm7.5681097 0h4.0464838l-.1523781 1.7768947h-5.9088821l1.0327846-10.9128158h1.8623983zm6.569187-9.1359211h6.416809l-.169309 1.7601316h-4.5544105l-.2708943 2.7994474h4.2665853l-.1693089 1.7768947h-4.2665854l-.2708943 2.7994474h4.5544106l-.1523781 1.7768947h-6.4168089zm10.9712195 0 3.5893496 7.644.7280285-7.644h1.8623984l-1.0327846 10.9128158h-1.8793293l-3.7247967-7.9122105-.7449594 7.9122105h-1.8623983l1.0327845-10.9128158zm14.4105886 9.1715366c-.5429419 1.3173155-1.4184954 1.9759634-2.6266861 1.9759634-1.2528925 0-2.2292309-.514065-2.9290447-1.5422105-.7336758-1.0840229-1.0214981-2.4474128-.8634756-4.0902105.1805971-1.7433771.7618853-3.140293 1.7438821-4.1907895.9481348-1.0281455 2.1163548-1.5422105 3.5046951-1.5422105.9481348 0 1.715661.2235065 2.3026016.6705263s1.0045652 1.1622407 1.2528862 2.1456842l-1.9470528.4693684c-.4176309-.9610925-1.0497113-1.4416315-1.8962602-1.4416315-.7449631 0-1.3939742.3464351-1.9470529 1.0393157-.5869406.7599337-.9255551 1.7098365-1.0158536 2.8497369-.1128732 1.1287249.0253944 2.0367202.4148069 2.7240131.3894125.687293.9283739 1.0309343 1.6169004 1.0309343s1.2585276-.2123313 1.7100203-.637c.4514928-.4246688.7336716-1.0225488.8465447-1.7936579 0-.0328322.0054123-.0603056.0162368-.0824203.0004628-.0396.0006941-.0791792.0006941-.1187376l-2.2010162-.0502895.1185162-1.3075263h3.9787602l-.5248577 5.632421h-1.5068496c-.0112873-.2905628-.0169309-.586709-.0169309-.8884473 0-.2343677-.0034048-.4653616-.0102144-.6929859-.007811.0187611-.0156934.037423-.0236474.0559859 0-.0717283.0007992-.1436723.0023975-.2158319zm4.9075619-9.1715366h6.4168089l-.1693089 1.7601316h-4.5544106l-.2708943 2.7994474h4.2665853l-.1693089 1.7768947h-4.2665854l-.2708943 2.7994474h4.5544106l-.1523781 1.7768947h-6.4168089z" fill="#fff" transform="translate(13.948874 88.553708)"/><g><path d="m0 36.8209677h7.38372093l17.48837207-29.91927415-10.5697674-6.78233871z" fill="#fff" transform="translate(6 52.781196)"/><path d="m13.1142857.11717172-12.94813185 21.30474748 12.17670325 7.5136364 14.4969231-16.1140404z" fill="#0a3a49" transform="translate(30.950249 38.04239)"/><path d="m35.9851982 0-35.84942728 40.4675281 40.81096918 38.3549438h25.9263436z" fill="#b1350e" transform="translate(57.368159 10.628211)"/></g></g></svg>