<svg fill="none" height="140" viewBox="0 0 181 140" width="181" xmlns="http://www.w3.org/2000/svg" xmlns:xlink="http://www.w3.org/1999/xlink"><mask id="a" height="27" maskUnits="userSpaceOnUse" width="21" x="30" y="112"><path d="m30 112.42h20.3754v26.008h-20.3754z" fill="#fff"/></mask><mask id="b" height="29" maskUnits="userSpaceOnUse" width="35" x="91" y="111"><path d="m91.239 111.826h34.743v27.174h-34.743z" fill="#fff"/></mask><g clip-rule="evenodd" fill="#fff" fill-rule="evenodd"><g mask="url(#a)"><path d="m38.9296 112.42-8.954 26.008h3.5667l1.3384-3.975h10.5514l1.3738 3.975h3.5686l-8.9929-26.008zm1.2622 5.536 4.1999 13.413h-8.4702z"/><path d="m29.9756 138.428 8.954-26.008h2.452l8.991 26.008h-3.5667l-1.3738-3.975h-10.553l-1.3368 3.975zm5.9439-7.059h8.4722l-4.1999-13.413z"/></g><path d="m53.47 112.42v26.008h11.8879v-3.046h-8.5091v-22.962z"/><path d="m53.4692 138.428v-26.008h3.3807v22.96h8.5091v3.048z"/><path d="m69.2689 138.428v-26.008h8.8798c6.2788 0 7.9132 4.235 7.9132 7.208 0 3.382-2.2652 5.313-4.3096 5.685 1.9323.407 4.4959 2.23 4.4959 5.797 0 2.969-1.6717 7.318-7.9136 7.318zm3.3804-14.677h5.5737c3.3823 0 4.4585-2.34 4.4585-4.123 0-1.745-1.0762-4.163-4.5328-4.163h-5.4994zm0 11.629h5.6853c3.4177 0 4.5328-2.449 4.5328-4.235 0-1.893-1.2267-4.311-4.4601-4.311h-5.758z"/><path d="m69.2689 138.428v-26.008h8.8798c6.2788 0 7.9132 4.235 7.9132 7.208 0 3.382-2.2652 5.313-4.3096 5.685 1.9323.407 4.4959 2.23 4.4959 5.797 0 2.969-1.6717 7.318-7.9136 7.318zm3.3804-14.677h5.5737c3.3823 0 4.4585-2.34 4.4585-4.123 0-1.745-1.0762-4.163-4.5328-4.163h-5.4994zm0 11.629h5.6853c3.4177 0 4.5328-2.449 4.5328-4.235 0-1.893-1.2267-4.311-4.4601-4.311h-5.758z"/><path d="m91.2369 138.428h3.494v-26.008h-3.494z"/><g mask="url(#b)"><path d="m91.239 138.426h3.492v-26.008h-3.492z"/><path d="m112.569 111.826c8.324 0 13.413 6.538 13.413 13.599 0 7.021-5.089 13.599-13.375 13.599-8.36 0-13.4501-6.542-13.4501-13.599 0-7.061 5.0901-13.599 13.4121-13.599zm0 24.15c6.093 0 9.846-5.127 9.846-10.551 0-5.499-3.753-10.552-9.846-10.552-6.092 0-9.882 5.088-9.882 10.552 0 5.424 3.79 10.551 9.882 10.551z"/><path d="m112.569 111.826c8.324 0 13.413 6.538 13.413 13.599 0 7.021-5.089 13.599-13.375 13.599-8.36 0-13.4501-6.542-13.4501-13.599 0-7.061 5.0901-13.599 13.4121-13.599zm0 24.15c6.093 0 9.846-5.127 9.846-10.551 0-5.499-3.753-10.552-9.846-10.552-6.092 0-9.882 5.088-9.882 10.552 0 5.424 3.79 10.551 9.882 10.551z"/></g><path d="m145.838 112.42v20.103l-11.704-20.103h-3.751v26.008h3.381v-20.1l11.702 20.1h3.753v-26.008z"/><path d="m130.382 138.428v-26.008h3.753l11.704 20.103v-20.103h3.38v26.008h-3.752l-11.704-20.1v20.1z"/><path d="m135.935 96.8637-.294-.0751c-.458-.1163-.774-.4575-.867-.9363l.609-.1167c.105-.5208-.064-2.0726-.247-2.7994-.098-.3884-.183-.7771-.268-1.1639-.085-.386-.169-.77-.266-1.1505-.025-.0935-.055-.1643-.094-.2543-.068-.1592-.154-.3581-.2-.6855l-.013-.0908.015-.0908c.046-.2665.049-.533.006-.7924-.036-.3396-.086-.6435-.139-.965-.135-.816-.274-1.6588-.099-2.5553.322-1.6513 1.605-3.439 2.796-4.5572.235-.2202.659-.5275.935-.6926.7-.4183 1.131-.6899 1.175-1.167.023-.239-.31-1.022-.597-1.4194-.072-.0535-.143-.1124-.211-.1702-.203-.1698-.677-.5676-.782-.636.154.0999-.093-.0314-.093-.0314-.036-.0397-.067-.079-.093-.1176-.675-.8733-1.415-1.7078-2.199-2.483-.44-.1926-.483-.1749-1.142.0995-1.142.4736-1.887.5483-2.954.2944-.368-.0861-.719-.2185-1.058-.3467-.361-.1368-.703-.2653-1.038-.3306-.262-.0507-.522-.0978-.781-.1446-.796-.1439-1.618-.2928-2.446-.5409-1.723-.5157-2.551-.6296-3.247.4434-.176.272-.261.6443-.351 1.0381-.098.4229-.198.8608-.428 1.2464-.715 1.1969-1.601.7075-2.131.4155-.121-.0668-.251-.1392-.396-.2091l-.124-.0598c-.572-.2786-.765-.3738-1.281-.3294-.306.0252-.496.0822-.698.1423-.35.1042-.711.2123-1.374.0661-.663-.1455-1.877-.601-2.43-1.0786-.38-.3262-.787-.7791-1.169-1.2197l-.037-.042c-.388-.4478-.722-.8345-.775-1.6203-.027-.3895.071-.7641.156-1.0943.045-.1737.088-.3376.106-.4799.054-.4131.12-.8376.186-1.2668.143-.923.29-1.8773.315-2.7609.047-1.6466-.516-3.191-1.628-4.4672-1.03-1.1836-2.249-2.4815-3.826-3.1544-1.027 1.6819-2.395 1.6902-4.091 1.7l-.44.0036c-.707.0102-1.414-.0657-2.0961-.1376-.8974-.0951-1.825-.1934-2.7601-.0975l-.5236.0538-.1065-.5157c-.0692-.3352-.0574-.6218-.0472-.8745.0107-.2661.0201-.4957-.0613-.7826-.1073-.3754-.2056-.7968-.3089-1.2429-.2477-1.0613-.5279-2.2641-.9815-3.0018-.0193-.0319-.037-.0606-.0535-.0869-.0963.0751-.213.1588-.3573.2441-.2122.1258-.4202.2142-.6214.2999-.1954.0829-.3797.1615-.5409.2653-.2051.1305-.4021.3054-.61.4909-.4473.3982-.9544.8495-1.6855.9705-.0055.0059-.7834-.0181-1.3034-.1851-.5436.0008-1.0872.059-1.6175.1729-.233.037-.4461.0551-.6611.0728-.296.0247-.6018.0499-.8341.1143l-.6419.1777c-.2704.0747-.4944-.2166-.3525-.4587l.3364-.5747c.0842-.1434.1561-.3089.2319-.4838.1278-.2936.272-.6262.5102-.9218.2025-.2515.4238-.3891.5849-.4889.1911-.1191.2488-.1549.3094-.3357.1077-.3219-.0786-.5428-.7319-1.0872-.1596-.1325-.3184-.2658-.4631-.4033-.3105-.2956-.5896-.6191-.8596-.932-.6867-.7967-1.2845-1.4913-2.1536-1.4587-.5825.0173-1.1509.3078-1.382.7056-.1525.263-.1435.5479.0283.871.0519.0975.1399.1887.2512.3039.1702.1765.382.3962.5385.7319.1084.2307.1733.4378.2303.6206.0566.1804.1014.3247.1769.4627.1073.1981.1045.437-.0252.6214l-.0361.0515c-.2265.3223-.662.4296-1.0063.2386-.7319-.4053-1.3812-.9131-2.0141-1.4072-.3172-.248-.6454-.5043-.9724-.7378-1.2869-.9178-2.7318-1.7055-4.2062-2.2951-.193.399-.3506.8616-.5153 1.3439-.2944.8628-.5987 1.7542-1.1643 2.4386-.1486.1788-.3026.3364-.4512.489-.3809.3907-.6816.6988-.7885 1.2181-.0374.1784-.0138.4292.0106.6949.0546.5853.1222 1.314-.3817 1.9575l-.2409.3073-.3758-.1061c-.3074-.0868-1.3639-.4135-2.0494-.9669-.3896-.316-.6631-.717-.9049-1.0711-.1993-.2925-.3879-.5684-.6057-.7488-.2523-.2103-.6584-.3353-1.088-.4678-.4607-.1423-.9375-.2889-1.3388-.5723-.3518-.248-.6014-.4889-.8219-.7016-.3078-.2972-.5511-.5318-1.0141-.7354-.5405-.2378-1.0967-.6097-1.6348-.9697-1.406-.941-2.3941-1.5212-3.2828-1.0302-.785.4319-1.5118.7523-2.5117.9127-.3098.0487-.3876.0845-.5287.1489-.1191.0543-.2673.1219-.5287.2048l-.055.0177c-.5071.1616-.9858.3149-1.645.1549l-.1144-.0279-.0947-.07c-2.2043-1.6316-5.0077-4.8721-5.6539-8.6361-.18-1.0569-.3097-1.6976-.884-2.58-.2001-.3082-.406-.592-.6049-.8664-.3589-.4944-.7299-1.0062-1.0613-1.6532-.16-.3117-.3416-.6132-.5338-.9324-.1116-.1855-.2224-.3702-.329-.5561l-.235-.4104.3537-.3145c.4014-.3561 1.0472-.505 1.5664-.6245.1093-.0252.2107-.0484.298-.072l.1984-.0558c.379-.1093.8538-.2464 1.3353-.16.0208-.3329-.0311-.8305-.0578-1.0876-.0393-.3765-.0762-.733-.0479-1.0196.0369-.3754.0086-.7983-.0217-1.246-.0459-.6824-.097-1.4394.0928-2.1627-.7582-.6823-1.3419-1.9814-1.2523-2.9287l.0456-.4756.4752-.0487c.2885-.039 1.4775-.5527 1.8694-.8467-.1195-.4764-.5652-1.6505-.7047-1.8686-.0999-.1227-.2284-.2127-.3907-.3271-.252-.1776-.5661-.3985-.8164-.8439-.1392-.2476-.2213-.4697-.2937-.6655-.0711-.1918-.132-.3573-.2374-.5204-.0719-.1112-.1886-.213-.3243-.3305-.2032-.1765-.4563-.3963-.6324-.7315-.0684-.129-.1258-.2571-.1812-.3833-.0841-.1894-.1564-.3529-.2696-.5023-.5425-.7146-1.3793-1.0656-2.2653-1.4371-.77-.3235-1.5664-.6576-2.2298-1.2542l-.2929-.263.1352-.3699c.0802-.2201.1616-.4194.2378-.6069.3074-.7543.4768-1.1701.2005-2.0176-.0755-.2315-.2771-.6415-.4902-1.0758-.7802-1.5896-1.3057-2.77583-.961-3.56118.2673-.6124.6128-.77277 1.0039-.90602.1195-.04088.2327-.079.3667-.15211.3184-.17374.4281-.2724.4634-.31092-.0125-.06957-.064-.21108-.1061-.32782-.044-.12185-.0931-.25785-.1411-.41232-.1446-.46422-.1081-.88951-.0762-1.26489.0145-.17177.0286-.33411.0255-.49369-.0043-.21029-.0456-.49841-.09-.80382-.1553-1.07465-.3679-2.547464.6977-3.295076l.2787-.195354.307.147007c.3596.17177.6693.197319 1.0282.227192.3703.030659.7775.064463 1.2166.271216l.3863.225227c.0311.021618.0625.044416.0936.068393l.1592.204395c.0334.05778.1886.27711.2496.35848.2036.1871.601.36594.9532.52474.1977.08883.3859.17452.5447.25982.085.0452.1632.08451.2351.12067.3086.15526.5755.28929.9013.64266.3133.33725.5365.70084.7523 1.05263.1974.32114.3837.62458.6242.88204.3176.33804.4473.62851.5621.88479.057.12696.1105.24724.1903.38285.1289.21697.3054.33686.5286.48819.1942.13128.4135.27986.6179.50745.204.2268.3007.49959.3785.71931.0484.136.0983.27672.1506.33686.0668.07625.2288.14032.4005.20832.2425.09591.5444.2154.7952.45714l.3463.3341-.2626.4029c-.3223.49482-.8738.78262-1.4072 1.06092-.9622.5015-1.1167.6749-.9744 1.0923.0507.1478.2893.4823.4316.682.1144.1603.217.3058.2799.4127.2362.4001.4249.4933.8014.6788.204.1006.458.226.7465.4218.5118.3459.9626.7955 1.3981 1.2307.4182.4174.8129.8116 1.2519 1.1167 1.1336.7873 1.9728 1.7204 2.8616 2.7086l.2613.2897c.171.1886.3157.3773.4552.5601.3377.4414.5817.7602 1.0338.8993l-.3428 1.1132c-.8081-.2488-1.2373-.8101-1.6163-1.305-.1305-.1706-.2543-.3325-.3934-.4858l-.2638-.2929c-.8423-.9362-1.6375-1.8202-2.6599-2.5309-.5239-.364-.9748-.8137-1.4103-1.2488-.4154-.4147-.8077-.8066-1.2283-1.0907-.2229-.151-.419-.2477-.6089-.3412-.4308-.2127-.8765-.4324-1.2896-1.1321-.0503-.0856-.1337-.2004-.2245-.3278-.2248-.3152-.4795-.6725-.5856-.9818-.4925-1.443.7295-2.0802 1.538-2.50192.1431-.07468.2882-.15054.423-.22797-.2154-.09434-.4461-.22169-.634-.43631-.1985-.22798-.294-.49723-.3707-.71381-.046-.12892-.0975-.27475-.147-.32978-.1093-.12146-.2465-.21422-.4053-.32192-.2739-.18592-.6147-.41704-.8781-.86003-.114-.19378-.1867-.35651-.2507-.49998-.0991-.22129-.1643-.36752-.3483-.56326-.3223-.34472-.5487-.71302-.7673-1.06954-.1949-.3172-.3789-.61711-.6143-.87064-.184-.19889-.305-.26021-.5704-.39346-.079-.04009-.165-.08333-.2606-.13403-.1391-.07468-.3026-.14779-.4736-.22484-.4552-.20478-.9709-.43709-1.3184-.78141-.1356-.136-.301-.32625-.4056-.53418-.3011-.18395-.5821-.20754-.9528-.2382-.2948-.02437-.643-.05306-1.0326-.17766-.2496.44652-.1297 1.27746-.0298 1.9669.0491.34197.0959.66468.1018.94768.0039.22051-.0134.42098-.0299.61515-.026.30738-.0488.57349.0283.82033.042.13561.0853.25471.1238.36123.3215.88794.27 1.4229-.8958 2.05849-.2217.12028-.4104.18474-.5479.23151-.228.07783-.228.07783-.3121.27043-.1423.37695.6159 1.92172.9394 2.58122.2417.4922.4505.9175.5519 1.2276.4371 1.3411.068 2.0777-.3015 2.9967v.0004c.4638.3274 1.0161.559 1.5943.8015.9885.4147 2.0105.8435 2.7424 1.8073.1953.2582.3078.5114.4064.735.0452.1022.0904.2056.1462.311.0755.143.2103.2602.3664.3958.1769.1537.3777.3282.5389.5786.1749.27.2684.5239.3514.7476.0633.1706.1226.3317.2165.4992.1211.215.2606.3132.4717.4622.1891.1329.4241.2984.6423.5684.2335.2897 1.0271 2.2927.9709 2.8014-.0802.711-1.5589 1.3462-2.395 1.6288.1199.6419.601 1.4843 1.035 1.7209l.4646.2535-.2076.4866c-.2535.5936-.2052 1.3117-.1541 2.0723.0323.4756.0653.9673.0189 1.4382-.0165.1694.0157.4823.0476.7853.0908.8758.1941 1.8691-.4151 2.3954l-.3479.3011-.3734-.2693c-.2052-.1482-.5059-.0762-.9771.0598-.0743.0216-.1478.0424-.2202.0621-.1006.0267-.215.053-.3376.0813-.1753.0405-.4135.0952-.6246.162.002.0027.0036.0055.0051.0082.1938.3216.3939.6545.5723 1.0012.2905.568.6195 1.0212.9678 1.5011.2075.2862.4225.5825.6387.9158.6835 1.0511.8545 1.8416 1.0554 3.018.5416 3.1544 2.9322 6.1798 5.0969 7.8201.272.0428.4834-.0185.9091-.1541l.0558-.0181c.195-.0617.2984-.1089.3982-.1545.2197-.1002.3958-.171.8294-.2397.8352-.1337 1.4351-.3986 2.1324-.7822 1.5754-.8691 3.1252.167 4.4927 1.0821.5189.347 1.009.6753 1.4559.8714.6533.2873 1.0094.6313 1.3541.9638.2084.2012.4057.3915.6844.588.25.1765.6194.2901 1.0102.4108.5208.1603 1.0589.3262 1.4893.6847.3435.2842.5876.6423.8238.9886.2154.316.4194.6143.6753.8219.294.2374.7433.4469 1.1667.601.0361-.2064.0188-.458-.0111-.7791-.0314-.3396-.064-.6906.0083-1.0393.1757-.8517.6643-1.3529 1.0955-1.7951.1317-.1352.2649-.2704.3879-.4186.4293-.5193.6985-1.3085.9591-2.0715.2374-.6961.4831-1.4158.8667-2.0089l.2536-.3919.4374.1619c1.7291.6395 3.4378 1.5452 4.9421 2.6178.3478.2481.6863.5126 1.0133.7681.2409.1883.4776.373.715.5499-.0413-.0464-.0861-.0928-.1345-.1431-.1462-.1513-.3117-.3231-.441-.5652-.3608-.6792-.3628-1.3903-.0074-2.0027.4359-.7507 1.36-1.255 2.3544-1.2853 1.4217-.044 2.3006.9693 3.0707 1.8623.2511.2913.5109.5924.7802.8487.127.1206.2665.2362.4056.3521.6199.5165 1.4685 1.2233 1.0912 2.3518-.1938.579-.5436.7963-.7987.9551-.1246.0771-.2146.1333-.2929.2307-.0589.0728-.1108.1569-.1595.2477.1556-.013.3085-.0268.4532-.0492.5959-.1297 1.2542-.202 1.8902-.1926l.6368.114c.1859.0334.3746.0653.4689.0767.3711-.0806.6847-.3597 1.046-.6812.2338-.2079.4752-.4229.757-.6026.2421-.1556.4925-.2618.7126-.3557.1742-.0739.3381-.1439.4843-.2303.156-.0924.2673-.1856.3652-.2677.1784-.149.4225-.3534.7755-.2956.3765.0609.5923.3695.8561.7987.5518.899.8553 2.1996 1.1226 3.347.1006.4319.1957.84.2952 1.189.1446.5114.1136.8966.101 1.2382.8333-.028 1.6273.0562 2.4004.1383.6781.0719 1.3131.1407 1.9581.1313l.448-.0035c1.767-.0107 2.573-.0154 3.308-1.5157l.224-.4575.483.1615c2.077.6934 3.56 2.2558 4.788 3.6657 1.307 1.5008 1.969 3.3215 1.913 5.2652-.026.9563-.18 1.9472-.328 2.9059-.065.4194-.129.8341-.181 1.2382-.028.215-.083.4229-.134.6238-.07.2676-.136.52-.122.7216.027.3978.154.5448.494.9371l.036.0417c.22.2535.681.7833 1.049 1.1006.346.2991 1.333.6945 1.919.8226.37.0818.511.0401.792-.0444.226-.0672.508-.1513.934-.1867.836-.0707 1.277.1451 1.888.443l.12.0582c.164.079.315.1619.453.2378.141.0786.33.1824.42.2067.026-.0239.076-.0798.148-.1992.136-.2284.212-.5594.292-.9096.104-.4528.222-.9658.509-1.4111 1.245-1.9178 3.083-1.3679 4.56-.9261.765.23 1.519.3664 2.318.511.264.0476.529.0955.795.147.433.0841.838.2366 1.228.3844.318.1199.619.2335.915.3031.834.1985 1.314.1478 2.239-.2366.905-.3762 1.209-.4658 2.156-.0464l.097.0424.076.0739c.828.8113 1.609 1.6855 2.323 2.6017.211.1419.481.3679.852.68.116.0971.206.1734.239.1981l.112.1066.289.4488c.289.5075.634 1.2795.58 1.8388-.1 1.0727-.955 1.5868-1.642 1.9999-.256.1533-.498.2988-.67.4517-1.058.939-2.326 2.6154-2.611 4.0776-.135.6914-.018 1.3962.105 2.1422.053.3251.109.6612.144 1.002.054.3231.056.6823.004 1.0432.024.1238.058.2012.104.3093.047.1081.104.2421.151.4237.102.3955.189.7925.276 1.1918.083.3746.165.7516.261 1.1289.008.033.771 3.2609-.101 4.014z"/></g></svg>
