<svg height="22" viewBox="0 0 22 22" width="22" xmlns="http://www.w3.org/2000/svg"><path d="m20.7863333 0h-19.57266663c-.67008334 0-1.21366667.54358333-1.21366667 1.21366667v19.57266663c0 .671.54358333 1.2136667 1.21366667 1.2136667h10.53616663v-8.5195h-2.86824997v-3.31925h2.86824997v-2.45208333c0-2.84075 1.7361667-4.38625 4.27075-4.38625 1.2145834 0 2.2586667.08891666 2.563.12925v2.97h-1.7609166c-1.375 0-1.6426667.66091666-1.6426667 1.62341666v2.11841667h3.2853333l-.42625 3.3275h-2.8590833v8.5085h5.6054167c.6719166 0 1.2145833-.5426667 1.2145833-1.2136667v-19.57266663c0-.67008334-.5426667-1.21366667-1.2136667-1.21366667" fill-rule="evenodd"/></svg>